<svg xmlns="http://www.w3.org/2000/svg" width="75.767" height="76.248" viewBox="0 0 75.767 76.248">
  <path id="Sustracción_18" data-name="Sustracción 18" d="M804.168,449.248H739.6a5.538,5.538,0,0,1-5.6-5.46V378.462A5.538,5.538,0,0,1,739.6,373h64.568a5.538,5.538,0,0,1,5.6,5.462v65.325A5.538,5.538,0,0,1,804.168,449.248Zm-24.976-25.3a3.709,3.709,0,0,0-2,.56,3.905,3.905,0,0,0-1.417,1.6,5.361,5.361,0,0,0-.519,2.416,5.419,5.419,0,0,0,.519,2.425,3.943,3.943,0,0,0,1.417,1.616,3.641,3.641,0,0,0,1.984.568,3.454,3.454,0,0,0,1.656-.383,2.978,2.978,0,0,0,1.112-1.008V433h2.736v-8.928h-2.736v1.264a2.84,2.84,0,0,0-1.1-1.008A3.444,3.444,0,0,0,779.192,423.944Zm-26.224,0a4.839,4.839,0,0,0-2.352.56,3.953,3.953,0,0,0-1.592,1.6,5.015,5.015,0,0,0-.568,2.432,4.957,4.957,0,0,0,.576,2.432,4,4,0,0,0,1.6,1.6,4.805,4.805,0,0,0,2.335.56,4.73,4.73,0,0,0,1.968-.4,4.06,4.06,0,0,0,1.464-1.1,4.016,4.016,0,0,0,.807-1.584H754.3a1.445,1.445,0,0,1-1.424.864,1.643,1.643,0,0,1-1.16-.44,1.866,1.866,0,0,1-.536-1.272h6.192a6.926,6.926,0,0,0,.048-.8,4.731,4.731,0,0,0-.568-2.352,3.916,3.916,0,0,0-1.576-1.553A4.8,4.8,0,0,0,752.968,423.944Zm38.417-2.784V433h2.736V421.16Zm-4.72,2.911V433H789.4v-8.928Zm-17.216,2.273a1.672,1.672,0,0,1,1.256.472,1.854,1.854,0,0,1,.455,1.336V433h2.721v-5.215a3.853,3.853,0,0,0-.985-2.8,3.545,3.545,0,0,0-2.648-1.008,3.43,3.43,0,0,0-1.744.464,3.622,3.622,0,0,0-1.264,1.2,3.111,3.111,0,0,0-1.24-1.231,3.717,3.717,0,0,0-1.8-.432,3.437,3.437,0,0,0-1.52.328,2.953,2.953,0,0,0-1.088.888v-1.121h-2.736V433h2.736v-4.847a1.853,1.853,0,0,1,.456-1.336,1.908,1.908,0,0,1,2.512,0,1.853,1.853,0,0,1,.456,1.336V433h2.72v-4.847a1.853,1.853,0,0,1,.456-1.336A1.668,1.668,0,0,1,769.448,426.344Zm18.592-6.161a1.667,1.667,0,0,0-1.176.424,1.4,1.4,0,0,0-.455,1.065,1.381,1.381,0,0,0,.455,1.048,1.667,1.667,0,0,0,1.176.424,1.645,1.645,0,0,0,1.16-.424,1.379,1.379,0,0,0,.456-1.048,1.4,1.4,0,0,0-.456-1.065A1.645,1.645,0,0,0,788.04,420.184ZM763.626,407.43v10.64l5.18-5.7-5.18-4.94Zm15.857-12.558v0L764.916,405.7l11.542,11.465,13.549-30.238-37,11.778,9.957,4.837Zm.51,35.873a1.844,1.844,0,0,1-1.384-.6,2.277,2.277,0,0,1-.568-1.624,2.214,2.214,0,0,1,.568-1.607,1.923,1.923,0,0,1,2.768.008,2.583,2.583,0,0,1,0,3.232A1.856,1.856,0,0,1,779.992,430.745Zm-25.376-3.073h-3.424a1.782,1.782,0,0,1,.584-1.136,1.74,1.74,0,0,1,1.16-.4,1.776,1.776,0,0,1,1.2.416,1.41,1.41,0,0,1,.48,1.119Z" transform="translate(-734 -373)" fill="#999fff"/>
</svg>
