<svg xmlns="http://www.w3.org/2000/svg" width="75.768" height="76.247" viewBox="0 0 75.768 76.247">
  <g id="linkedin" transform="translate(-213.883 -1.783)">
    <path id="Sustracción_13" data-name="Sustracción 13" d="M-837.047-5781.97h-64.568a5.537,5.537,0,0,1-5.6-5.459v-65.326a5.539,5.539,0,0,1,5.6-5.462h64.568a5.539,5.539,0,0,1,5.6,5.462v65.325A5.538,5.538,0,0,1-837.047-5781.97Zm-29.422-46.849h-11.443c.148,3.208,0,34.124,0,34.428h11.443v-19.225a7.562,7.562,0,0,1,.378-2.792,7.13,7.13,0,0,1,2.06-2.864,5.881,5.881,0,0,1,3.812-1.321,5.043,5.043,0,0,1,4.451,2.157,9.988,9.988,0,0,1,1.346,5.628v18.417h11.443v-19.741c0-9.7-4.925-15.5-13.175-15.5a11.431,11.431,0,0,0-10.314,5.682Zm-29.222,0v34.43h11.444v-34.43Zm5.8-16.6c-3.812,0-6.475,2.447-6.475,5.95,0,3.446,2.659,5.947,6.323,5.947h.075c3.812,0,6.475-2.446,6.475-5.947C-883.572-5843.026-886.143-5845.417-889.891-5845.417Z" transform="translate(1121.097 5860)" fill="#999fff"/>
  </g>
</svg>
