<svg xmlns="http://www.w3.org/2000/svg" width="75.767" height="76.248" viewBox="0 0 75.767 76.248">
  <path id="Sustracción_17" data-name="Sustracción 17" d="M804.168,449.249H739.6a5.538,5.538,0,0,1-5.6-5.46V378.463A5.538,5.538,0,0,1,739.6,373h64.568a5.538,5.538,0,0,1,5.6,5.462v65.325A5.538,5.538,0,0,1,804.168,449.249Zm-45.5-37.879a13.208,13.208,0,0,0-6.624,1.638,11.285,11.285,0,0,0-4.446,4.572,15.1,15.1,0,0,0,0,13.392,11.308,11.308,0,0,0,4.446,4.572,13.227,13.227,0,0,0,6.624,1.638,12.62,12.62,0,0,0,7.992-2.538,11.565,11.565,0,0,0,4.176-6.894h-7.6a4.932,4.932,0,0,1-4.68,2.952,4.85,4.85,0,0,1-3.906-1.746,8.24,8.24,0,0,1,0-9.36,4.845,4.845,0,0,1,3.906-1.746,4.932,4.932,0,0,1,4.68,2.952h7.6a11.565,11.565,0,0,0-4.176-6.894A12.616,12.616,0,0,0,758.672,411.369Zm13.644.252L781.1,437h9.036l8.748-25.38H791.36l-5.724,18.324-5.76-18.324ZM776.884,394h0l11.5,15,11.5-15h-6v-9h-10v9Zm-9.207-4.215h0V406h4.509V389.786Zm-7.086,7.274h0V406H765.1V389.786h-5.429l-3.979,10.534-4.072-10.534h-5.45V406h4.508v-9.016L753.763,406h3.772l3.056-8.941Z" transform="translate(-734 -373)" fill="#999fff"/>
</svg>
