<svg id="layer1" xmlns="http://www.w3.org/2000/svg" width="40.64" height="57.296" viewBox="0 0 40.64 57.296">
  <g id="g3013" transform="translate(0 0)">
    <path id="Sustracción_11" data-name="Sustracción 11" d="M20.3,46.09h0L3.7,41.483,0,0H40.64l-3.7,41.476L20.3,46.09ZM9.442,26.476h0l.713,7.988,10.422,2.893.023-.007h0l10.413-2.886.077-.86,1.2-13.394.124-1.366.919-10.3H7.843L8.3,13.635H27.752l-.463,5.21H8.759l.456,5.088H26.847l-.59,6.6-5.674,1.531h0l-5.666-1.53-.362-4.058H9.442Z" transform="translate(0 11.206)" fill="#999fff"/>
    <path id="path2999" d="M160,0h6.162V2.577h-3.585V5.154h3.585V7.731H160Z" transform="translate(-150.156)" fill="#999fff"/>
    <path id="path3001" d="M226,0h6.162V2.241h-3.585v.448h3.585V7.843H226V5.49h3.585V5.042H226Z" transform="translate(-208.761)" fill="#999fff"/>
    <path id="path3003" d="M292,0h6.162V2.241h-3.585v.448h3.585V7.843H292V5.49h3.585V5.042H292Z" transform="translate(-267.367)" fill="#999fff"/>
  </g>
</svg>
