<svg id="HTML" xmlns="http://www.w3.org/2000/svg" width="40.599" height="57.296" viewBox="0 0 40.599 57.296">
  <path id="Trazado_20" data-name="Trazado 20" d="M108.4,0h2.574V2.551h2.372V0h2.574V7.722h-2.574V5.148H111V7.722h-2.6m10.922-5.148H117.05V0h7.128V2.574H121.9V7.722h-2.574M125.309,0h2.7l1.656,2.719L131.318,0h2.7V7.722h-2.574V3.894l-1.8,2.775-1.8-2.775V7.722h-2.529M135.291,0h2.574V5.17h3.648V7.722h-6.222" transform="translate(-104.618)" fill="#999fff"/>
  <path id="Sustracción_9" data-name="Sustracción 9" d="M20.266,46.038h0L3.693,41.45,0,0H40.6L36.907,41.428l-16.64,4.61ZM9.154,26.376l.716,7.979L20.3,37.265v-.028l10.385-2.881,1.4-15.6h-18.5l-.47-5.2H32.542l.47-5.081H7.542L8.93,23.825H20.277v.011h6.267l-.593,6.6-5.663,1.519-5.673-1.519-.358-4.062h-5.1Z" transform="translate(0 11.258)" fill="#999fff"/>
</svg>
