<svg id="Unofficial_JavaScript_logo_2" xmlns="http://www.w3.org/2000/svg" width="45.472" height="45.472" viewBox="0 0 45.472 45.472">
  <path id="Sustracción_10" data-name="Sustracción 10" d="M45.472,45.472H0V0H45.472V45.472ZM30.546,35.525l-3.472,2.017c.826,1.632,2.936,4.37,7.787,4.37,4.3,0,7.081-2.337,7.081-5.955,0-3.577-2.083-5.17-5.68-6.713l-1.068-.458c-.52-.225-.885-.4-1.184-.56a4.153,4.153,0,0,1-.817-.554,1.85,1.85,0,0,1-.473-.646,2.092,2.092,0,0,1-.153-.835,1.834,1.834,0,0,1,.143-.724,1.689,1.689,0,0,1,.41-.581,1.887,1.887,0,0,1,.644-.386,2.484,2.484,0,0,1,.848-.14,2.7,2.7,0,0,1,1.56.423,3.87,3.87,0,0,1,1.19,1.408l3.327-2.136a6.307,6.307,0,0,0-6.077-3.421c-3.685,0-6.258,2.321-6.258,5.644a5.794,5.794,0,0,0,1.41,4.031,7.379,7.379,0,0,0,1.62,1.336,14.953,14.953,0,0,0,2.1,1.071l1.068.458a11.212,11.212,0,0,1,2.286,1.189,1.944,1.944,0,0,1,.825,1.648,1.8,1.8,0,0,1-.2.845,1.975,1.975,0,0,1-.582.667,2.845,2.845,0,0,1-.914.438,4.353,4.353,0,0,1-1.2.157,4.952,4.952,0,0,1-1.419-.2,4.088,4.088,0,0,1-1.136-.541,4.794,4.794,0,0,1-.912-.822,7.588,7.588,0,0,1-.749-1.036h0Zm-15.095.37h0L11.973,38a6.608,6.608,0,0,0,6.41,3.9c4.115,0,6.381-2.286,6.381-6.438V20.879H20.491V35.408a4.634,4.634,0,0,1-.16,1.321,1.926,1.926,0,0,1-.458.823,2.208,2.208,0,0,1-1.671.542,2.462,2.462,0,0,1-.955-.176,2.3,2.3,0,0,1-.719-.476,4.1,4.1,0,0,1-.57-.7c-.177-.266-.347-.564-.506-.846Z" transform="translate(0 0)" />
</svg>
