<svg xmlns="http://www.w3.org/2000/svg" width="60.858" height="45.64" viewBox="0 0 60.858 45.64">
  <path id="Sass_Logo_Color" d="M52.377,26.21a12.6,12.6,0,0,0-5.513,1.278,11.618,11.618,0,0,1-1.234-2.857,7.671,7.671,0,0,1-.111-2.4,21.325,21.325,0,0,1,.723-2.59c-.011-.111-.133-.634-1.356-.645s-2.279.233-2.4.556a13.413,13.413,0,0,0-.511,1.812c-.211,1.112-2.445,5.08-3.724,7.159a7.722,7.722,0,0,1-.845-2.09,7.671,7.671,0,0,1-.111-2.4,21.326,21.326,0,0,1,.723-2.59c-.011-.111-.133-.634-1.356-.645s-2.279.233-2.4.556-.256,1.078-.511,1.812-3.224,7.359-4,9.071c-.4.878-.745,1.578-.989,2.056h0a.507.507,0,0,1-.044.089c-.211.411-.333.634-.333.634v.011c-.167.3-.345.578-.434.578a3.719,3.719,0,0,1,.022-1.89c.445-2.3,1.5-5.88,1.49-6,0-.067.2-.689-.689-1.012a1.1,1.1,0,0,0-1.256.211c-.078,0-.133.189-.133.189s.967-4.024-1.845-4.024c-1.756,0-4.18,1.923-5.38,3.657-.756.411-2.368,1.289-4.091,2.234-.656.367-1.334.734-1.968,1.078-.044-.044-.089-.1-.133-.145-3.4-3.635-9.693-6.2-9.426-11.083.1-1.779.711-6.447,12.083-12.116,9.36-4.613,16.807-3.335,18.1-.5,1.845,4.046-3.991,11.561-13.661,12.65-3.69.411-5.625-1.012-6.114-1.545-.511-.556-.589-.589-.778-.478-.311.167-.111.667,0,.956a5.708,5.708,0,0,0,3.49,2.746c1.779.578,6.1.9,11.338-1.123,5.858-2.268,10.438-8.57,9.093-13.85C36.737.2,27.844-1.569,19.429,1.422A42.386,42.386,0,0,0,5.1,9.647C.466,13.983-.268,17.751.032,19.329c1.078,5.6,8.8,9.248,11.894,11.95-.156.089-.3.167-.422.233-1.545.767-7.437,3.846-8.9,7.1-1.667,3.69.267,6.336,1.545,6.692a9.506,9.506,0,0,0,10.238-4.146,10.269,10.269,0,0,0,.912-9.46.233.233,0,0,0-.044-.067c.4-.233.811-.478,1.212-.711.789-.467,1.567-.9,2.234-1.256a14.65,14.65,0,0,0-.789,4.046c-.167,2.09.689,4.8,1.812,5.869a2,2,0,0,0,1.467.478c1.312,0,1.9-1.089,2.557-2.379.8-1.578,1.523-3.413,1.523-3.413s-.9,4.958,1.545,4.958c.889,0,1.79-1.156,2.19-1.745v.011s.022-.033.067-.111l.145-.233v-.022c.356-.622,1.156-2.034,2.345-4.38,1.534-3.024,3.012-6.8,3.012-6.8a19.319,19.319,0,0,0,.589,2.457,23.133,23.133,0,0,0,1.267,2.846c-.356.5-.578.778-.578.778l.011.011c-.289.378-.6.789-.945,1.189A35.432,35.432,0,0,0,32.057,36.8a.972.972,0,0,0,.267,1.312,2.425,2.425,0,0,0,1.49.245,6.84,6.84,0,0,0,2.234-.511,7.5,7.5,0,0,0,1.923-1.012,4.3,4.3,0,0,0,1.845-3.791,7.653,7.653,0,0,0-.7-2.679c.111-.156.211-.311.322-.467a50.92,50.92,0,0,0,3.335-5.758,19.32,19.32,0,0,0,.589,2.457,16.455,16.455,0,0,0,1.078,2.445,10.565,10.565,0,0,0-3.246,4.191c-.7,2.023-.156,2.935.878,3.146a3.1,3.1,0,0,0,1.623-.333,7.392,7.392,0,0,0,2.056-1.056,4.622,4.622,0,0,0,2.268-3.757,7.1,7.1,0,0,0-.511-2.223,11.642,11.642,0,0,1,5.9-.678c5.291.622,6.336,3.924,6.136,5.313a3.516,3.516,0,0,1-1.678,2.379c-.367.233-.489.311-.456.478.044.245.222.233.534.189a4.132,4.132,0,0,0,2.879-3.679C60.992,29.745,57.879,26.177,52.377,26.21ZM11.559,39.971C9.8,41.883,7.358,42.606,6.3,41.995c-1.134-.656-.689-3.479,1.467-5.5a28,28,0,0,1,4.124-3.079c.256-.156.634-.378,1.089-.656.078-.044.122-.067.122-.067h0l.267-.167A7.592,7.592,0,0,1,11.559,39.971Zm12.783-8.693c-.611,1.49-1.89,5.3-2.668,5.091-.667-.178-1.078-3.068-.133-5.925a13.46,13.46,0,0,1,2.079-3.813c.956-1.067,2.012-1.423,2.268-.989C26.21,26.21,24.721,30.345,24.343,31.279Zm10.549,5.047c-.256.133-.5.222-.611.156-.078-.044.111-.222.111-.222s1.323-1.423,1.845-2.068c.3-.378.656-.823,1.034-1.323v.145C37.27,34.714,35.625,35.859,34.892,36.325Zm8.137-1.856c-.189-.133-.156-.578.478-1.968a7.406,7.406,0,0,1,1.812-2.334A3.146,3.146,0,0,1,45.5,31.19,3.363,3.363,0,0,1,43.028,34.469Z" transform="translate(0.026 0.026)" />
</svg>
