<svg xmlns="http://www.w3.org/2000/svg" width="56.354" height="48.5" viewBox="0 0 56.354 48.5">
  <path id="Unión_9" data-name="Unión 9" d="M44.173,42.831v-.163H13.79V38.937H0V0H48.347V32.651l8.007,6.286L44.173,48.5Zm-40.6-7.463H13.79v-.487H44.173V29.374l.6.475V3.569H3.569Zm21.481-5.554V14.37H32a5.7,5.7,0,0,1,3.685,1.077,3.568,3.568,0,0,1,1.331,2.927A3.531,3.531,0,0,1,36.3,20.64a3.7,3.7,0,0,1-1.9,1.255,3.59,3.59,0,0,1,2.156,1.331,4.049,4.049,0,0,1-.539,5.456,5.712,5.712,0,0,1-3.774,1.133Zm3.762-3.037h2.772a2.236,2.236,0,0,0,1.463-.428,1.523,1.523,0,0,0,.517-1.243,1.592,1.592,0,0,0-.539-1.276,2.209,2.209,0,0,0-1.485-.463H28.813Zm0-6.16h2.464a2.186,2.186,0,0,0,1.419-.407,1.466,1.466,0,0,0,.495-1.2A1.5,1.5,0,0,0,32.7,17.8a2.142,2.142,0,0,0-1.419-.418H28.813Zm-13.4,3.031L9.932,8.205h4l3.828,11.66,3.85-11.66H25.6L20.119,23.649Z" fill="#999fff"/>
</svg>
