<svg id="React" xmlns="http://www.w3.org/2000/svg" width="49.926" height="44.42" viewBox="0 0 49.926 44.42">
  <path id="Trazado_18" data-name="Trazado 18" d="M41.049,14.4h0q-.8-.274-1.607-.506.134-.546.248-1.1c1.217-5.906.421-10.663-2.3-12.229-2.6-1.5-6.864.064-11.166,3.808q-.636.555-1.243,1.141-.406-.39-.827-.764C19.65.747,15.131-.94,12.418.631,9.816,2.137,9.045,6.61,10.14,12.206q.163.831.369,1.654c-.639.182-1.257.375-1.848.581C3.376,16.284,0,19.172,0,22.168c0,3.094,3.624,6.2,9.129,8.079q.67.228,1.35.422-.221.886-.392,1.782c-1.044,5.5-.229,9.866,2.366,11.363,2.68,1.546,7.179-.043,11.56-3.872q.519-.454,1.042-.96.658.634,1.35,1.231c4.243,3.651,8.434,5.126,11.027,3.625,2.678-1.55,3.548-6.241,2.418-11.949q-.129-.654-.3-1.335.474-.14.928-.29c5.723-1.9,9.447-4.962,9.447-8.1C49.926,19.161,46.441,16.254,41.049,14.4ZM27.629,5.982c3.686-3.208,7.131-4.474,8.7-3.569h0C38,3.377,38.652,7.265,37.6,12.364q-.1.5-.224.993A51.093,51.093,0,0,0,30.7,12.3a50.1,50.1,0,0,0-4.22-5.267Q27.042,6.494,27.629,5.982ZM14.741,24.727q.677,1.308,1.415,2.583.753,1.3,1.567,2.564a45.413,45.413,0,0,1-4.6-.74C13.564,27.711,14.107,26.231,14.741,24.727Zm0-5.016c-.621-1.473-1.152-2.921-1.586-4.32,1.424-.319,2.943-.579,4.526-.777q-.795,1.239-1.531,2.515T14.739,19.711Zm1.134,2.508q.986-2.052,2.124-4.025h0q1.137-1.972,2.421-3.854c1.485-.112,3.007-.171,4.546-.171s3.07.059,4.555.172q1.27,1.877,2.406,3.841t2.152,4.006q-1,2.058-2.145,4.041h0q-1.134,1.971-2.4,3.864c-1.481.106-3.012.16-4.572.16s-3.065-.048-4.52-.143Q19.15,28.224,18,26.242t-2.13-4.023Zm17.9,5.076q.753-1.306,1.448-2.645h0A45.3,45.3,0,0,1,36.9,29.042a45.261,45.261,0,0,1-4.657.794q.791-1.255,1.533-2.541Zm1.428-7.583q-.692-1.313-1.436-2.6h0q-.732-1.265-1.518-2.5c1.593.2,3.119.468,4.552.8a45.494,45.494,0,0,1-1.6,4.3ZM24.987,8.56a45.614,45.614,0,0,1,2.938,3.547q-2.949-.139-5.9,0C22.994,10.827,23.988,9.638,24.987,8.56Zm-11.5-6.084c1.67-.967,5.364.412,9.256,3.868.249.221.5.452.749.692A51.11,51.11,0,0,0,19.239,12.3a52.115,52.115,0,0,0-6.662,1.035q-.191-.765-.343-1.538h0C11.295,7,11.918,3.384,13.486,2.476ZM11.052,28.615q-.621-.178-1.232-.386A18.068,18.068,0,0,1,4,25.136a4.408,4.408,0,0,1-1.864-2.968c0-1.818,2.71-4.137,7.231-5.713q.851-.3,1.718-.541a51.149,51.149,0,0,0,2.433,6.305,51.929,51.929,0,0,0-2.464,6.4ZM22.61,38.337a18.064,18.064,0,0,1-5.589,3.5h0a4.407,4.407,0,0,1-3.5.132c-1.575-.908-2.229-4.415-1.337-9.118q.159-.834.365-1.658a50.153,50.153,0,0,0,6.728.974,51.9,51.9,0,0,0,4.286,5.295Q23.1,37.91,22.61,38.337Zm2.436-2.411c-1.011-1.091-2.019-2.3-3-3.595q1.434.056,2.921.057,1.527,0,3.014-.067a45.357,45.357,0,0,1-2.931,3.605ZM38,38.893a4.407,4.407,0,0,1-1.635,3.1c-1.573.911-4.938-.273-8.567-3.4q-.624-.537-1.255-1.145a50.119,50.119,0,0,0,4.185-5.314A49.79,49.79,0,0,0,37.487,31.1q.152.616.27,1.208h0A18.06,18.06,0,0,1,38,38.893Zm1.811-10.652h0c-.273.09-.553.178-.839.262a50.057,50.057,0,0,0-2.528-6.325,50.037,50.037,0,0,0,2.43-6.233c.511.148,1.006.3,1.484.468,4.62,1.59,7.438,3.942,7.438,5.754,0,1.93-3.044,4.436-7.985,6.073Z" transform="translate(0 0)" />
  <path id="Trazado_19" data-name="Trazado 19" d="M13.9,8.159a4.458,4.458,0,1,1-4.458,4.458A4.458,4.458,0,0,1,13.9,8.159" transform="translate(11.059 9.551)" />
</svg>
