<svg xmlns="http://www.w3.org/2000/svg" width="246" height="230" viewBox="0 0 246 230">
  <g id="Grupo_16" data-name="Grupo 16" transform="translate(-1762 -3235)">
    <g id="Grupo_15" data-name="Grupo 15" transform="translate(228 265)">
      <rect id="Rectángulo_30" data-name="Rectángulo 30" width="246" height="230" transform="translate(1534 2970)" fill="none"/>
    </g>
    <g id="Grupo_3" data-name="Grupo 3" transform="translate(5701.044 512.197)">
      <circle id="Elipse_5" data-name="Elipse 5" cx="22.136" cy="22.136" r="22.136" transform="translate(-3936.462 2791.828)" />
      <path id="Trazado_10" data-name="Trazado 10" d="M-3811.622,3093.687c.025.544.039,1.091.039,1.64a35.869,35.869,0,0,1-35.869,35.869,35.869,35.869,0,0,1-35.869-35.869c0-.549.014-1.1.038-1.64h-37.137a72.865,72.865,0,0,0,72.865,72.763,72.866,72.866,0,0,0,72.865-72.763Z" transform="translate(-12.147 -248.977)" />
      <path id="Trazado_11" data-name="Trazado 11" d="M-3561.6,2858.545q0,2.224-.166,4.406h36.139q.1-2.191.1-4.406a93.67,93.67,0,0,0-93.67-93.67,93.692,93.692,0,0,0-92.624,79.63h36.754a57.618,57.618,0,0,1,55.87-43.556A57.6,57.6,0,0,1-3561.6,2858.545Z" transform="translate(-170.101)" />
    </g>
  </g>
</svg>
