<svg xmlns="http://www.w3.org/2000/svg" width="246" height="230" viewBox="0 0 246 230">
  <g id="Grupo_19" data-name="Grupo 19" transform="translate(-2108 -3629)">
    <g id="Grupo_18" data-name="Grupo 18" transform="translate(574 659)">
      <rect id="Rectángulo_30" data-name="Rectángulo 30" width="246" height="230" transform="translate(1534 2970)" fill="none"/>
    </g>
    <path id="Trazado_44" data-name="Trazado 44" d="M498.68,1583.674a43.122,43.122,0,0,0-6.021-13.045,40.686,40.686,0,0,0-8.028-8.53,22.363,22.363,0,0,1-2.007,12.543,18.161,18.161,0,0,1-8.028,8.529,16.522,16.522,0,0,1-9.858,1.416,44.9,44.9,0,0,0,.142-7.309c-.35-5.642-1.142-18.431-9.307-31.461a60.114,60.114,0,0,0-10.048-12.06l16.026-13.8a129.423,129.423,0,0,0-15.621-14.633,34.05,34.05,0,0,0,2.074-9.45c.224-3.12.388-5.9-1-9.031a9.412,9.412,0,0,0-11.54-6.021c-2.87.584-4.681,2.08-7.024,4.014a29.839,29.839,0,0,0-5.519,6.021l.056.038a125.076,125.076,0,0,0-19.624-7.563l-6.6,29.809a158,158,0,0,0-25.861-2.408c-1.292-.014-2.577-.027-3.864-.029a44.8,44.8,0,0,1-6.325-6.8c-4.324-5.76-5.274-9.91-5.519-12.042-.3-2.652-.536-4.667.5-6.522,2.086-3.728,8.34-5.09,15.554-3.512a53.739,53.739,0,0,0-26.592-.5c-6.625,1.621-15.455,3.781-18.564,11.038-2.006,4.682-.776,9.513,0,12.543a28.312,28.312,0,0,0,6.624,12.073,96.3,96.3,0,0,0-11.813,5.855c-5.367,3.075-9.457,5.418-13.847,9.938-5.383,5.54-7.875,10.912-10.652,16.9a99.794,99.794,0,0,0-7.361,23.576c-2.379.246-4.437.354-6.1.4-5.075.134-6.421-.337-7.526-1a8.653,8.653,0,0,1-4.014-7.024c-.049-4.878,4.992-7.945,4.516-8.529-.578-.708-8.838,2.737-14.55,10.536a30.167,30.167,0,0,0-6.021,19.567,29.861,29.861,0,0,0,6.532,16.875c-1.415,3.744-1.388,7.283-1.308,11.494.13,6.852.231,12.205,3.973,17.164.846,1.122,4.768,6.319,11.285,6.936,1.086.1,5.93.561,8.892-2.454,3.509-3.572,2.133-9.738,2.708-9.779.684-.049.4,8.838,3.973,17.164,3.843,8.951,10.773,14.05,15.55,17.564,7.834,5.764,15.321,8.2,21.5,10.2a115.741,115.741,0,0,0,12.678,3.26c10.217,2.04,18.062,3.01,18.062,3.01s7.142.883,12.273,4.169c.353.226.645.442.645.442a16.921,16.921,0,0,1,4.373,5.587c.24.49.388.855.524,1.153l8.486-.145a19.6,19.6,0,0,0,1.874-3.22c1.847-3.271,5.056-4.772,13.046-7.508,11.712-4.01,13.251-3.674,18.9-5.783a68.88,68.88,0,0,0,21.864-13.509c1.5-1.377,8-7.46,11.964-15.221a38.286,38.286,0,0,0,2.9-7.228c.247-.87.459-1.734.637-2.55-.024.517-.032,1.058-.018,1.615.063,2.383.111,4.226,1.325,5.721,1.742,2.148,4.8,2.239,6.292,2.283,5.784.173,10.13-3.345,11.686-4.641,5.6-4.664,7.318-10.713,8.3-14.152.912-3.209,1.981-6.98,1.678-10.857a16.335,16.335,0,0,0,3.712-1c6.267-2.521,8.827-8.178,9.533-9.533C502.585,1597.707,500.664,1590.8,498.68,1583.674Zm-134.64,34.487c1.5-1.566,3.981-1.5,5.519-1,2.889.925,4.929,4.126,5.017,8.028a.347.347,0,0,1-.344.372.332.332,0,0,1-.269-.269,9.879,9.879,0,0,0-.807-3.5c-.545-1.248-1.414-3.239-3.5-4.034-1.415-.541-3.739-.662-5.11.807-1.478,1.582-1.438,4.566.538,6.724a.451.451,0,0,1,0,.269.378.378,0,0,1-.269.269.368.368,0,0,1-.277-.139C364.291,1625.428,361.5,1620.8,364.04,1618.161Zm-55.619-46.6a13.735,13.735,0,0,1,6.179-3.59c3.916-1.079,8.643-.553,8.94.762.089.4-.232.837-.674,1.241a19.39,19.39,0,0,0-2.69-.269,14.658,14.658,0,0,0-5.11.538,11.926,11.926,0,0,0-5.379,3.766c-1.6,2.016-1.962,3.972-3.228,4.034a1.886,1.886,0,0,1-1.321-.6A14.889,14.889,0,0,1,308.422,1571.56Zm11.911,58.872a28,28,0,0,1-12.042-7.526,29.041,29.041,0,0,1-7.526-18.062,30.523,30.523,0,0,1,6.021-20.069,28.98,28.98,0,0,1,11.54-9.031,28.331,28.331,0,0,1,16.557-1.505,29.583,29.583,0,0,1,13.547,6.522,28.855,28.855,0,0,1,8.027,11.54,29.789,29.789,0,0,1-6.021,30.606,31.048,31.048,0,0,1-30.1,7.526Zm83.039,9.413a13.369,13.369,0,0,0-18.693-2.286,12.76,12.76,0,0,0-5.379,8.069,12.407,12.407,0,0,0,1.883,8.607,13.2,13.2,0,0,0,5.917,5.111,12.911,12.911,0,0,0,7.262.807l-.1,1.306a14.458,14.458,0,0,1-7.72-.881,13.667,13.667,0,0,1-6.467-5.3,12.988,12.988,0,0,1-.868-1.608,22.839,22.839,0,0,1-3.225,2.956c-2.154,1.623-4.466,3.366-7.531,3.5a10.617,10.617,0,0,1-6.455-2.152,15,15,0,0,1-5.95-9.33c-.131.229-.325.557-.578.939a14.492,14.492,0,0,1-4.911,4.874,13,13,0,0,1-7.949,1.427l.517-1.24a11.043,11.043,0,0,0,11.3-5.379,12.4,12.4,0,0,0,2.152-8.338,9.089,9.089,0,0,0-2.69-5.917c-4.126-3.607-10.928-.675-11.834-.269a14.778,14.778,0,0,0-4.572,3.228l-.679-1.072a15.711,15.711,0,0,1,4.878-3.363c.065-.028.16-.07.283-.121.491-.205,7.837-3.14,12.606.582a8.377,8.377,0,0,1,1.783,1.925,33.714,33.714,0,0,0,11.3,3.228,34.1,34.1,0,0,0,16.407-2.421l-.209.174.288-.211a14.871,14.871,0,0,1,20.057,2.219Zm32.434-26.51a29.369,29.369,0,0,1-7.024,13.045,31.047,31.047,0,0,1-30.1,7.526,27.987,27.987,0,0,1-12.042-7.526,29.039,29.039,0,0,1-7.526-18.062,30.519,30.519,0,0,1,6.021-20.069,28.969,28.969,0,0,1,11.54-9.031,28.327,28.327,0,0,1,16.557-1.505,29.578,29.578,0,0,1,13.547,6.522,28.855,28.855,0,0,1,8.028,11.54A29.667,29.667,0,0,1,435.806,1613.335ZM437.351,1581c-1.265-.062-1.632-2.018-3.228-4.034a11.928,11.928,0,0,0-5.379-3.766,14.663,14.663,0,0,0-5.11-.538,19.4,19.4,0,0,0-2.69.269c-.442-.4-.763-.844-.674-1.241.3-1.315,5.024-1.84,8.94-.762a13.733,13.733,0,0,1,6.179,3.59,14.892,14.892,0,0,1,3.282,5.88A1.886,1.886,0,0,1,437.351,1581Z" transform="translate(1852.705 2159.182)" />
  </g>
</svg>
