<svg xmlns="http://www.w3.org/2000/svg" width="163.363" height="162.11" viewBox="0 0 163.363 162.11">
  <path id="Trazado_9" data-name="Trazado 9" d="M-443.2-2752.181a41.119,41.119,0,0,0-3.869-5.8,21.768,21.768,0,0,0-3.869-3.653c-.43-.429-.43-.215-.43-.429-1.719-1.934,3.224-6.877,4.728-11.82,2.364-8.6-6.017-17.837-7.307-19.126-6.662-6.877-15.044-8.167-20.416-9.026a42.429,42.429,0,0,0-12.895,0,38.759,38.759,0,0,0-9.886-18.912c-3.223-3.224-8.811-9.241-17.193-9.671-8.382-.645-14.829,4.513-22.136,10.316a67.561,67.561,0,0,0-11.169,11.173,66.78,66.78,0,0,0-17.837.86c-7.092,1.29-12.465,2.364-17.408,6.662-.43.43-9.026,7.951-9.241,18.912-.215,5.588,1.934,7.522,2.579,18.7a42.011,42.011,0,0,1,0,7.522c-1.29,8.382-6.232,10.53-9.886,18.052-.86,1.934-5.588,11.39-2.364,21.49.215.86,4.083,12.035,15.258,15.473,9.026,2.793,19.987-.215,24.714-6.877,3.438-4.728,3.654-10.96,9.241-13.539a9.649,9.649,0,0,1,3.653-.86,17.834,17.834,0,0,1,6.232,9.026c.43,1.5,2.364,7.522-.645,12.464-2.149,3.438-5.588,4.728-9.886,6.232-9.456,3.224-12.25.43-21.706,3.438-4.3,1.29-9.67,3.223-11.82,7.951-.215.645-2.15,4.728-.215,8.382a4.7,4.7,0,0,0,3.224,3.656c4.085,1.934,7.309.215,13.326-.43,4.511-.644,2.792.43,15.253.43,8.6,0,9.886-.215,13.756.43,5.373,1.074,5.373,2.364,9.236,2.579,4.943.215,6.663-1.934,12.682-3.438,3.868-1.075,4.943-.644,13.969-1.29,14.614-.86,12.895-2.149,19.342-1.934,11.82.215,15.9,3.868,21.921.644.644-.43,5.373-2.794,5.8-6.877.43-4.728-5.8-8.6-6.877-9.241-2.149-1.289-4.943-2.364-18.912-3.223-9.026-.645-12.464-.43-15.688-3.224a10.605,10.605,0,0,1-3.654-6.447c-.86-5.8,3.438-12.035,7.952-12.68,2.149-.43,2.794.86,9.241,3.653,5.8,2.579,8.811,3.869,11.605,3.869,3.868,0,4.083-1.719,12.465-4.728,5.588-1.934,6.017-1.29,9.241-2.794a24.728,24.728,0,0,0,9.456-7.307c4.084-5.588,4.084-11.605,4.084-14.4A30.245,30.245,0,0,0-443.2-2752.181Zm-37.168,10.244a27.757,27.757,0,0,0-3.446,3.748c-1.968,2.659-2.212,4.368-6.225,8.072-3.478,3.211-4.7,4.333-7.307,6.877-1.03,1.007-2.58,2.57-4.394,4.614a26.583,26.583,0,0,0-3.867,7.413c-.905,2.721-2.123,6.383-.967,10.635a13.793,13.793,0,0,0,2.9,5.479c2.618,2.9,6,3.515,22.56,5.157a48.145,48.145,0,0,1,14.5,3.867c1.708.783,3.883,1.934,4.19,3.868.321,2.022-1.566,3.849-1.934,4.189-3.513,3.254-9.007,1.119-17.726.322-.957-.087.043.024-19.015.645-16.216.528-17.52.467-19.659,1.934-1.436.984-4.622,3.6-9.024,3.545a14.283,14.283,0,0,1-2.578-.322,56.814,56.814,0,0,1-9.991-2.9c-2.332-.836-7.249-.665-17.081-.322-6,.209-7.091.413-10.958.322-7.407-.174-11.96-.326-12.891-2.578-.923-2.232,2.029-5.76,4.512-7.735,5.1-4.057,9.566-2.629,18.048-4.19,6.672-1.228,17.056-3.139,20.949-10.635,3.66-7.049-.142-15.719-.322-16.114a23.87,23.87,0,0,0-4.834-6.768c-1.4-1.36-1.112-.723-4.19-3.223-3.864-3.139-5.9-5.427-9.861-7.493-.09-.047-.255-.134-.475-.243a24.945,24.945,0,0,0-7.309-2.364c-5.8-.644-10.1,1.5-10.314.644-.432-.644,2.579-1.719,4.083-4.943s.43-6.017,1.719-6.662c1.075-.645,2.362,1.289,3.869.644,1.5-.429,2.149-2.793,2.149-4.943-.215-2.794-2.581-4.943-5.588-7.522s-4.943-3.438-4.943-5.157c0-.86.43-.86,1.719-3.224,1.934-3.439,1.934-4.513,2.794-4.943,1.5-.43,3.436,2.364,5.586,5.157,2.794,4.083,3.438,6.017,4.513,5.8a13.128,13.128,0,0,1,.942-7.73c.841-1.752,1.936-2.8,3.141-5.593a23.769,23.769,0,0,0,1.289-3.869c.86-.215,1.5,1.074,3.438,1.719,2.529.843,4.1-.716,4.943,0,1.019.863-.218,3.464-1.854,8.388-2.023,6.085-3.034,9.129-3.089,12.243-.036,2.011-.052,4.553-.313,6.713-.193,1.594-.481,1.913-.323,2.71.443,2.227,2.725,2.961,5.336,5.083,2.19,1.78,2.838,3.094,4.512,5.156,2.195,2.7,6.172,6.715,14,12.359a23.447,23.447,0,0,0,2.794-11.175,25.1,25.1,0,0,0-3.868-13.539c-3.224-5.373-7.522-8.382-6.877-9.456.518-.863,4.144,1.907,6.662.429.339-.2,1.525-.982,2.116-4.079.284-1.49.944-6.205-3.223-14.5-2.333-4.647-3.469-5.017-5.479-9.668a43.5,43.5,0,0,1-2.441-7.422l7.6-4.5c.732,4.926,3.193,8.582,5.479,8.7,2.607.136,6.242-4.261,6.446-11.28l9.024,4.834c-2.121,5.378-3.819,10.164-5.157,14.18-1.589,4.771-2.334,7.445-2.328,10.846,0,1.194.1,3.335.268,5.424.279,3.542.653,5.249.807,10.479.215,9.456.43,14.184-.644,18.052-.86,2.794-2.364,6.232-1.719,11.175.215,1.719.644,4.3,2.149,4.943,1.934.644,4.083-2.149,10.316-7.952,4.648-4.328,6.437-4.753,8.472-6.49a22.838,22.838,0,0,0,1.844-1.892c3.06-3.552,4.694-8.3,7.587-12.358.993-1.394,3.578-3.759,8.746-8.488,2.387-2.184,4.4-3.95,5.8-5.157a9.37,9.37,0,0,0,0,6.232,9.626,9.626,0,0,0,5.433,5.48C-471.208-2749.841-476.288-2745.839-480.373-2741.937Z" transform="translate(602.915 2830.677)" />
</svg>
