<svg xmlns="http://www.w3.org/2000/svg" width="44.048" height="42.962" viewBox="0 0 44.048 42.962">
  <path id="iconmonstr-github-1" d="M22.024,0a22.026,22.026,0,0,0-6.961,42.923c1.1.2,1.455-.479,1.455-1.059v-4.1c-6.126,1.332-7.4-2.6-7.4-2.6A5.833,5.833,0,0,0,6.67,31.942c-2-1.367.152-1.338.152-1.338a4.623,4.623,0,0,1,3.375,2.27c1.964,3.366,5.152,2.393,6.409,1.83A4.673,4.673,0,0,1,18,31.76C13.113,31.2,7.971,29.312,7.971,20.875a8.524,8.524,0,0,1,2.268-5.912,7.922,7.922,0,0,1,.215-5.829s1.85-.591,6.058,2.257a20.875,20.875,0,0,1,11.029,0c4.2-2.848,6.051-2.257,6.051-2.257a7.914,7.914,0,0,1,.217,5.829,8.5,8.5,0,0,1,2.267,5.912c0,8.459-5.152,10.322-10.056,10.867a5.264,5.264,0,0,1,1.51,4.078v6.044c0,.585.352,1.274,1.47,1.057A22.028,22.028,0,0,0,22.024,0Z" fill="#999fff"/>
</svg>
