<svg xmlns="http://www.w3.org/2000/svg" width="161.21" height="128.039" viewBox="0 0 161.21 128.039">
  <g id="Bootstrap_logo" transform="translate(0)">
    <path id="Sustracción_8" data-name="Sustracción 8" d="M127.739,128.039H33.483a15.294,15.294,0,0,1-11.058-4.724,16.524,16.524,0,0,1-4.641-12.009c.271-7.754,0-18.911-2.823-28.028C12.007,73.74,7.113,68.775,0,68.1V59.94c7.113-.676,12.007-5.641,14.961-15.18,2.824-9.118,3.094-20.274,2.823-28.027a16.525,16.525,0,0,1,4.642-12.01A15.294,15.294,0,0,1,33.483,0h94.256A15.294,15.294,0,0,1,138.8,4.723a16.525,16.525,0,0,1,4.642,12.01c-.271,7.753,0,18.909,2.822,28.027,2.954,9.54,7.845,14.5,14.95,15.18V68.1c-7.105.675-12,5.64-14.95,15.18-2.824,9.118-3.093,20.274-2.822,28.028a16.525,16.525,0,0,1-4.642,12.009A15.294,15.294,0,0,1,127.739,128.039ZM56.014,29.957v68.1H84.1c14.944,0,23.866-7.2,23.866-19.254,0-8.925-6.394-15.62-15.911-16.659v-.378a15.261,15.261,0,0,0,12.467-14.818c0-10.321-8.073-16.99-20.568-16.99ZM81.87,89.42H66.881V67H81.239a29.261,29.261,0,0,1,6.779.7,14.074,14.074,0,0,1,4.887,2.1,8.99,8.99,0,0,1,2.959,3.483,11.212,11.212,0,0,1,.994,4.846c0,3.665-1.285,6.491-3.82,8.4S86.744,89.42,81.87,89.42ZM79.056,58.933H66.881V38.593H81.336a19.566,19.566,0,0,1,5.24.645,10.9,10.9,0,0,1,3.867,1.892,8.09,8.09,0,0,1,2.394,3.078A11.087,11.087,0,0,1,92.7,52.9a8.808,8.808,0,0,1-2.813,3.3,13.405,13.405,0,0,1-4.578,2.036A25.616,25.616,0,0,1,79.056,58.933Z" transform="translate(0)" fill="#fff"/>
  </g>
</svg>
