<svg id="Unofficial_JavaScript_logo_2" xmlns="http://www.w3.org/2000/svg" width="127.891" height="127.891" viewBox="0 0 127.891 127.891">
  <path id="Sustracción_10" data-name="Sustracción 10" d="M127.891,127.891H0V0H127.891V127.89ZM85.91,99.915l-9.766,5.674c2.323,4.59,8.257,12.29,21.9,12.29,12.1,0,19.914-6.574,19.914-16.748,0-10.06-5.858-14.54-15.976-18.879l-3-1.287c-1.462-.633-2.489-1.119-3.33-1.575a11.682,11.682,0,0,1-2.3-1.559,5.2,5.2,0,0,1-1.332-1.816,5.884,5.884,0,0,1-.429-2.347,5.159,5.159,0,0,1,.4-2.035A4.75,4.75,0,0,1,93.143,70a5.306,5.306,0,0,1,1.812-1.087,6.986,6.986,0,0,1,2.384-.395,7.593,7.593,0,0,1,4.389,1.19,10.884,10.884,0,0,1,3.346,3.961l9.358-6.009c-3.783-6.655-9.055-9.622-17.093-9.622-10.363,0-17.6,6.528-17.6,15.875A16.3,16.3,0,0,0,83.7,85.248a20.754,20.754,0,0,0,4.555,3.758,42.053,42.053,0,0,0,5.914,3.012l3,1.289a31.533,31.533,0,0,1,6.43,3.343,5.467,5.467,0,0,1,2.319,4.635,5.063,5.063,0,0,1-.575,2.377,5.555,5.555,0,0,1-1.638,1.876,8,8,0,0,1-2.572,1.232,12.242,12.242,0,0,1-3.376.443,13.928,13.928,0,0,1-3.991-.549,11.5,11.5,0,0,1-3.194-1.523,13.483,13.483,0,0,1-2.565-2.311,21.342,21.342,0,0,1-2.106-2.915h0Zm-42.453,1.041h0l-9.783,5.923c2.366,5.008,7.414,10.977,18.029,10.977,11.572,0,17.945-6.431,17.945-18.108V58.722H57.63V99.586a13.034,13.034,0,0,1-.451,3.714,5.416,5.416,0,0,1-1.288,2.314c-1.02,1.039-2.514,1.523-4.7,1.523a6.923,6.923,0,0,1-2.685-.495,6.477,6.477,0,0,1-2.023-1.34,11.518,11.518,0,0,1-1.6-1.968c-.5-.747-.977-1.585-1.424-2.379Z" transform="translate(0 0)" fill="#fff"/>
</svg>
