<svg id="React" xmlns="http://www.w3.org/2000/svg" width="140.416" height="124.93" viewBox="0 0 140.416 124.93">
  <path id="Trazado_18" data-name="Trazado 18" d="M115.45,40.492h0q-2.242-.769-4.52-1.424.378-1.535.7-3.083c3.422-16.61,1.184-29.99-6.455-34.395-7.325-4.225-19.3.18-31.4,10.709q-1.788,1.56-3.5,3.208-1.143-1.1-2.327-2.149C55.266,2.1,42.556-2.644,34.924,1.773,27.606,6.01,25.439,18.589,28.519,34.33q.46,2.338,1.038,4.651c-1.8.511-3.535,1.055-5.2,1.634C9.494,45.8,0,53.921,0,62.347c0,8.7,10.191,17.431,25.676,22.723q1.883.641,3.8,1.187-.621,2.491-1.1,5.013c-2.937,15.467-.643,27.749,6.656,31.959,7.539,4.347,20.191-.121,32.511-10.891q1.461-1.277,2.93-2.7,1.849,1.784,3.8,3.463c11.934,10.269,23.72,14.416,31.012,10.195,7.532-4.36,9.979-17.554,6.8-33.606q-.364-1.839-.842-3.753,1.333-.393,2.611-.815c16.1-5.333,26.57-13.955,26.57-22.774C140.416,53.891,130.616,45.713,115.45,40.492ZM77.707,16.824C88.074,7.8,97.763,4.241,102.178,6.787h0c4.7,2.712,6.531,13.647,3.576,27.988q-.29,1.4-.631,2.791A143.7,143.7,0,0,0,86.348,34.6,140.917,140.917,0,0,0,74.478,19.786Q76.056,18.265,77.707,16.824ZM41.46,69.544q1.9,3.679,3.981,7.266,2.118,3.658,4.408,7.211A127.725,127.725,0,0,1,36.909,81.94C38.148,77.937,39.676,73.776,41.46,69.544Zm-.007-14.107c-1.747-4.143-3.241-8.217-4.462-12.15,4.006-.9,8.278-1.629,12.73-2.186q-2.235,3.486-4.3,7.074T41.453,55.436Zm3.189,7.054q2.772-5.77,5.973-11.32h0q3.2-5.547,6.808-10.839c4.176-.316,8.458-.481,12.786-.481,4.348,0,8.635.167,12.81.485q3.572,5.28,6.765,10.8,3.209,5.533,6.053,11.267Q93.024,68.194,89.8,73.772h0q-3.191,5.543-6.736,10.869c-4.166.3-8.471.451-12.859.451-4.369,0-8.62-.136-12.713-.4Q53.859,79.379,50.632,73.8q-3.209-5.541-5.991-11.314ZM95,76.768q2.118-3.674,4.072-7.44h0a127.4,127.4,0,0,1,4.715,12.352,127.3,127.3,0,0,1-13.1,2.233Q92.914,80.384,95,76.768Zm4.015-21.328q-1.946-3.694-4.039-7.307h0q-2.059-3.557-4.27-7.022c4.48.566,8.773,1.317,12.8,2.238a127.951,127.951,0,0,1-4.494,12.091ZM70.275,24.076a128.289,128.289,0,0,1,8.263,9.975q-8.293-.392-16.6,0C64.671,30.45,67.465,27.108,70.275,24.076ZM37.93,6.965c4.7-2.719,15.085,1.158,26.034,10.879.7.621,1.4,1.272,2.107,1.945a143.746,143.746,0,0,0-11.961,14.8A146.573,146.573,0,0,0,35.371,37.5q-.537-2.151-.965-4.326h0C31.767,19.691,33.519,9.518,37.93,6.965ZM31.083,80.479q-1.746-.5-3.466-1.085a50.817,50.817,0,0,1-16.377-8.7A12.4,12.4,0,0,1,6,62.346c0-5.112,7.623-11.634,20.337-16.067q2.394-.831,4.833-1.521a143.858,143.858,0,0,0,6.844,17.734,146.049,146.049,0,0,0-6.929,17.986Zm32.507,27.343a50.8,50.8,0,0,1-15.718,9.84h0a12.4,12.4,0,0,1-9.848.37c-4.43-2.554-6.27-12.416-3.759-25.643q.448-2.345,1.026-4.662a141.055,141.055,0,0,0,18.923,2.739,145.965,145.965,0,0,0,12.053,14.892Q64.958,106.622,63.589,107.821Zm6.851-6.78c-2.843-3.068-5.679-6.461-8.448-10.111q4.032.159,8.215.159,4.293,0,8.476-.188a127.566,127.566,0,0,1-8.243,10.139Zm36.426,8.346a12.4,12.4,0,0,1-4.6,8.717c-4.425,2.562-13.889-.768-24.094-9.55q-1.755-1.51-3.531-3.219a140.96,140.96,0,0,0,11.77-14.945,140.033,140.033,0,0,0,19.018-2.931q.429,1.734.76,3.4h0a50.794,50.794,0,0,1,.675,18.532Zm5.093-29.96h0c-.767.254-1.555.5-2.358.738a140.786,140.786,0,0,0-7.11-17.788,140.728,140.728,0,0,0,6.834-17.529c1.436.416,2.831.855,4.174,1.317,12.994,4.472,20.92,11.086,20.92,16.182,0,5.428-8.56,12.475-22.458,17.081Z" transform="translate(0 0)" fill="#fff"/>
  <path id="Trazado_19" data-name="Trazado 19" d="M21.985,8.159A12.539,12.539,0,1,1,9.446,20.7,12.539,12.539,0,0,1,21.985,8.159" transform="translate(48.223 41.65)" fill="#fff"/>
</svg>
