<svg xmlns="http://www.w3.org/2000/svg" width="171.161" height="128.361" viewBox="0 0 171.161 128.361">
  <path id="Sass_Logo_Color" d="M147.357,73.763a35.437,35.437,0,0,0-15.507,3.6c-1.594-3.158-3.189-5.971-3.47-8.035a21.576,21.576,0,0,1-.313-6.753c.375-2.876,2.063-6.972,2.032-7.284s-.375-1.782-3.814-1.813-6.409.657-6.753,1.563a37.724,37.724,0,0,0-1.438,5.1c-.594,3.126-6.878,14.287-10.473,20.134a21.717,21.717,0,0,1-2.376-5.877,21.576,21.576,0,0,1-.313-6.753c.375-2.876,2.063-6.972,2.032-7.284s-.375-1.782-3.814-1.813-6.409.657-6.753,1.563-.719,3.033-1.438,5.1S85.893,85.893,83.7,90.708c-1.125,2.47-2.095,4.439-2.782,5.784h0a1.426,1.426,0,0,1-.125.25c-.594,1.157-.938,1.782-.938,1.782v.031c-.469.844-.969,1.626-1.219,1.626-.188,0-.531-2.251.063-5.315,1.251-6.472,4.221-16.538,4.189-16.882,0-.188.563-1.938-1.938-2.845a3.1,3.1,0,0,0-3.533.594c-.219,0-.375.531-.375.531s2.72-11.317-5.19-11.317c-4.94,0-11.755,5.409-15.131,10.286-2.126,1.157-6.659,3.627-11.5,6.284-1.845,1.032-3.752,2.063-5.534,3.033-.125-.125-.25-.281-.375-.406C29.745,73.919,12.05,66.7,12.8,52.973c.281-5,2-18.133,33.983-34.077,26.324-12.974,47.27-9.379,50.9-1.407C102.869,28.869,86.456,50,59.257,53.067c-10.379,1.157-15.819-2.845-17.195-4.346-1.438-1.563-1.657-1.657-2.188-1.344-.875.469-.313,1.876,0,2.689.813,2.126,4.158,5.877,9.817,7.722,5,1.626,17.164,2.532,31.889-3.158,16.476-6.378,29.356-24.1,25.573-38.954C103.37.607,78.359-4.364,54.693,4.046c-14.068,5-29.325,12.88-40.3,23.135C1.358,39.374-.706,49.972.138,54.411,3.171,70.168,24.9,80.422,33.59,88.019c-.438.25-.844.469-1.188.657C28.056,90.833,11.487,99.493,7.36,108.653c-4.689,10.379.75,17.82,4.346,18.82,11.161,3.1,22.635-2.47,28.793-11.661s5.409-21.134,2.564-26.605a.654.654,0,0,0-.125-.188c1.125-.657,2.282-1.344,3.408-2,2.22-1.313,4.408-2.532,6.284-3.533a41.2,41.2,0,0,0-2.22,11.38c-.469,5.877,1.938,13.506,5.1,16.507a5.631,5.631,0,0,0,4.127,1.344c3.689,0,5.346-3.064,7.191-6.69,2.251-4.439,4.283-9.6,4.283-9.6s-2.532,13.943,4.346,13.943c2.5,0,5.033-3.251,6.159-4.908v.031s.063-.094.188-.313c.25-.406.406-.657.406-.657v-.063c1-1.751,3.251-5.721,6.6-12.318,4.314-8.5,8.472-19.133,8.472-19.133a54.335,54.335,0,0,0,1.657,6.909,65.06,65.06,0,0,0,3.564,8c-1,1.407-1.626,2.188-1.626,2.188l.031.031c-.813,1.063-1.688,2.22-2.657,3.345-3.408,4.064-7.472,8.722-8.035,10.067-.657,1.594-.5,2.751.75,3.689.907.688,2.532.782,4.189.688a19.238,19.238,0,0,0,6.284-1.438,21.089,21.089,0,0,0,5.409-2.845,12.1,12.1,0,0,0,5.19-10.661,21.525,21.525,0,0,0-1.97-7.534c.313-.438.594-.875.907-1.313a143.212,143.212,0,0,0,9.379-16.194A54.335,54.335,0,0,0,122,74.857a46.278,46.278,0,0,0,3.033,6.878c-4.971,4.033-8.035,8.722-9.129,11.786-1.97,5.69-.438,8.253,2.47,8.847,1.313.281,3.189-.344,4.564-.938a20.791,20.791,0,0,0,5.784-2.97c3.345-2.47,6.565-5.909,6.378-10.567a19.976,19.976,0,0,0-1.438-6.253,32.742,32.742,0,0,1,16.6-1.907c14.881,1.751,17.82,11.036,17.257,14.944a9.89,9.89,0,0,1-4.721,6.69c-1.032.657-1.376.875-1.282,1.344.125.688.625.657,1.5.531,1.219-.219,7.816-3.158,8.1-10.348C171.586,83.7,162.832,73.669,147.357,73.763Zm-114.8,38.7c-4.94,5.377-11.818,7.409-14.788,5.69-3.189-1.845-1.938-9.785,4.127-15.475a78.759,78.759,0,0,1,11.6-8.66c.719-.438,1.782-1.063,3.064-1.845.219-.125.344-.188.344-.188h0l.75-.469A21.353,21.353,0,0,1,32.558,112.467ZM68.511,88.019c-1.719,4.189-5.315,14.913-7.5,14.319-1.876-.5-3.033-8.629-.375-16.663a37.856,37.856,0,0,1,5.846-10.723c2.689-3,5.659-4,6.378-2.782C73.763,73.763,69.574,85.393,68.511,88.019ZM98.18,102.213c-.719.375-1.407.625-1.719.438-.219-.125.313-.625.313-.625s3.72-4,5.19-5.815c.844-1.063,1.845-2.313,2.907-3.72V92.9C104.87,97.68,100.243,100.9,98.18,102.213Zm22.885-5.221c-.531-.375-.438-1.626,1.344-5.534a20.83,20.83,0,0,1,5.1-6.565,8.849,8.849,0,0,1,.5,2.876C127.974,93.8,123.659,96.054,121.065,96.992Z" transform="translate(0.026 0.026)" fill="#fff"/>
</svg>
