<svg xmlns="http://www.w3.org/2000/svg" width="181.728" height="115.146" viewBox="0 0 181.728 115.146">
  <g id="Grupo_3" data-name="Grupo 3" transform="translate(3936.462 -2764.875)">
    <circle id="Elipse_5" data-name="Elipse 5" cx="16.703" cy="16.703" r="16.703" transform="translate(-3936.462 2785.213)" fill="#999fff"/>
    <path id="Trazado_10" data-name="Trazado 10" d="M-3838.324,3093.687c.019.41.029.823.029,1.237a27.066,27.066,0,0,1-27.066,27.066,27.066,27.066,0,0,1-27.066-27.066c0-.415.011-.827.029-1.237h-28.023a54.982,54.982,0,0,0,54.982,54.905,54.982,54.982,0,0,0,54.982-54.905Z" transform="translate(-13.103 -268.571)" fill="#999fff"/>
    <path id="Trazado_11" data-name="Trazado 11" d="M-3598.468,2835.555q0,1.679-.125,3.325h27.269q.076-1.653.077-3.325a70.68,70.68,0,0,0-70.68-70.68,70.7,70.7,0,0,0-69.891,60.086h27.734a43.476,43.476,0,0,1,42.157-32.866A43.46,43.46,0,0,1-3598.468,2835.555Z" transform="translate(-183.487)" fill="#999fff"/>
  </g>
</svg>
