<svg xmlns="http://www.w3.org/2000/svg" width="126.919" height="132.841" viewBox="0 0 126.919 132.841">
  <path id="Trazado_12" data-name="Trazado 12" d="M357.076-5520.176a57.75,57.75,0,0,0,4.184-25.939c-.244-6-1.033-20.73-10.878-35.145-15.269-22.354-40.284-26.317-43.512-26.776-21.69-3.08-45.129,5.176-59.41,23.43-17.517,22.39-12.606,48.765-11.715,53.553a68.018,68.018,0,0,0,5.857,17.571,8.667,8.667,0,0,0-.837,5.021,3.936,3.936,0,0,1,0,2.509c-.349.777-1,1.164-.837,1.674a2.8,2.8,0,0,0,.837.861v27.589l16.736-16.736c1.59,1.105,3.861,2.6,6.694,4.184a75.191,75.191,0,0,0,25.94,9.2c7.526,1.119,23.658,3.518,37.655-5.856a40.051,40.051,0,0,0,8.367-7.531l15.9,16.736V-5502.6l1.673-1.673-1.673-1.674v-5.021A53.7,53.7,0,0,0,357.076-5520.176Zm-38.934-78.595c1.431.5,3.436,1.208,5.782,2.244-14.027-.369-37.111-.29-50.174-.217,2.371-1.071,4.181-1.72,5.064-2.026A61.124,61.124,0,0,1,318.142-5598.771Zm-33.352,40.257c-.206-.914-.6-1.588-.256-2.05a1.308,1.308,0,0,1,1.537-.256c1.118.618.686,3.286.512,4.355a8.4,8.4,0,0,1-2.306,5.124c-1.066.98-2.126,1.245-2.05,1.538.136.522,3.606.034,3.843,0,10.679-1.536,20.572-10.3,25.364-7.173a3.917,3.917,0,0,1,1.794,3.074c.029,3.7-7.525,6.386-9.736,7.173a31.436,31.436,0,0,1-10.5,1.794c.773,2.046.688,3.835-.2,4.463a1.293,1.293,0,0,1-1.332.149c-.193-.126-.487-.46-.257-2.818.164-1.673.246-2.51.513-2.818,1.137-1.313,3.543.141,4.868-1.024.586-.518,1.032-1.609.512-4.1-1.156.446-2.628.982-4.355,1.538-7.926,2.549-10.093,1.916-11.273,1.281-.586-.316-1.465-.789-1.537-1.538-.157-1.614,3.671-2.085,4.612-5.124A7.6,7.6,0,0,0,284.789-5558.514Zm-3.074-11.53a4.61,4.61,0,0,1-4.1,2.563,4.722,4.722,0,0,1-4.1-2.306,4.45,4.45,0,0,1,.512-4.612,4.7,4.7,0,0,1,6.149-1.281A4.535,4.535,0,0,1,281.715-5570.044Zm40.993-.768a4.857,4.857,0,0,1-3.843,2.562,4.721,4.721,0,0,1-4.355-3.073,4.847,4.847,0,0,1,1.794-5.894,4.676,4.676,0,0,1,5.636.769A4.853,4.853,0,0,1,322.709-5570.812Zm-82.781,21.027a52.045,52.045,0,0,1,3.741-17.188A52.952,52.952,0,0,1,260.53-5588.8c.213,4.064.29,19.185.394,46.342A151.134,151.134,0,0,1,239.928-5549.785Zm93.379,8.567c.907-26.965,1.582-42.271,2.073-48.565a50.265,50.265,0,0,1,11.211,11.931,53.106,53.106,0,0,1,8.811,29.74A152.6,152.6,0,0,1,333.307-5541.218Z" transform="translate(-234.437 5608.667)" fill="#999fff"/>
</svg>
