<svg xmlns="http://www.w3.org/2000/svg" width="246" height="230" viewBox="0 0 246 230">
  <g id="Grupo_22" data-name="Grupo 22" transform="translate(-2125 -3322)">
    <g id="Grupo_21" data-name="Grupo 21" transform="translate(591 352)">
      <rect id="Rectángulo_30" data-name="Rectángulo 30" width="246" height="230" transform="translate(1534 2970)" fill="none"/>
    </g>
    <g id="Grupo_20" data-name="Grupo 20" transform="translate(-3415.715 -2653.647)">
      <path id="Trazado_45" data-name="Trazado 45" d="M5651.838,5990.055c-41.774,6.688-75.562,35.675-86.41,74.157-3.782,13.495-3.782,38.217,0,52.25,15.868,59.045,82.847,91.59,138.983,67.466,39.241-16.783,62.824-55.647,60.016-99.153-.859-16.028-3.508-25.854-10.846-41.02-12.093-25.207-35.841-44.423-63.963-51.6C5680.174,5989.674,5660.906,5988.649,5651.838,5990.055Zm5.883,32.276c0,12.736-.485,19.535-1.242,19.535-3.129,0-20.94-4.046-21.805-5.017-1.4-1.243,4.643-14.25,11.605-24.831,4.264-6.691,6.315-8.474,10.578-9.066C5657.343,6002.9,5657.721,6011.642,5657.721,6022.331Zm19.054-18.138c4.534,2.375,21.049,30.172,19.432,32.548-.646,1.132-8.693,3.131-17.92,4.532l-5.4.867v-19.7c0-10.85.379-19.7.756-19.7A16.725,16.725,0,0,1,5676.775,6004.193Zm-50.2,16.139-5.665,11.334-6.8-3.4c-3.778-1.783-6.8-3.888-6.8-4.644,0-2.914,18.783-14.356,23.588-14.519C5631.653,6009.1,5629.764,6014.125,5626.577,6020.332Zm80.641-5.937c5.4,2.915,10.846,6.314,11.874,7.446,1.888,2,1.622,2.538-3.292,5.56-8.474,5.289-8.312,5.289-12.739-3.4-2.16-4.263-5.021-9.446-6.421-11.5C5693.184,6007.7,5695.344,6008.081,5707.218,6014.4Zm35.675,35.675c4.537,9.336,8.205,22.454,8.205,29.257v4.155H5721.09l-.758-3.507c-.271-1.891-1.025-6.21-1.4-9.718a149.627,149.627,0,0,0-4.046-16.89c-1.621-5.941-2.648-10.961-2-11.227.485-.108,4.639-2.541,9.229-5.183l8.2-4.913,4.155,4.533C5736.849,6039.225,5740.63,6045.32,5742.893,6050.07Zm-136.232-9.822c4.913,2.537,8.962,4.64,9.069,4.64,0,.107-1.132,4.158-2.753,9.229a150.59,150.59,0,0,0-4.534,19.165l-1.51,10.2h-15.007c-13.762,0-15-.271-14.355-2.268a79.175,79.175,0,0,0,1.4-7.824c2.159-13.494,13.871-37.838,18.19-37.838A84.7,84.7,0,0,1,5606.66,6040.249Zm38.7,11.982,12.361,2.914v28.391H5620.75l.647-7.936a117.406,117.406,0,0,1,3.508-17.81c2.643-8.69,3.292-9.713,5.56-9.067C5632.031,6049.1,5638.723,6050.718,5645.36,6052.23Zm57.919-.647c1.778,4.531,6.206,25.365,6.206,29.038,0,2.915-.108,2.915-18.3,2.915h-18.3v-28.607l7.935-1.4a106.844,106.844,0,0,0,13.008-3.292C5700.738,6047.587,5701.766,6047.8,5703.28,6051.583Zm-95.485,49.871c.271,1.621,1.242,7.073,2,11.986a162.266,162.266,0,0,0,3.886,17.056c1.242,4.424,2.375,8.205,2.375,8.579s-4.264,2.918-9.61,5.667l-9.444,5.021-3.127-3.776c-7.181-8.69-16.9-34.166-16.9-44.423,0-2.914.106-2.914,15.113-2.914C5606.771,6098.647,5607.309,6098.755,5607.794,6101.454Zm49.927,11.442v14.25l-11.6,2.753c-6.423,1.62-13.007,3.13-14.356,3.511-2.377.643-3.022-.273-5.291-7.342-3.021-9.067-5.291-19.917-5.291-24.34v-3.134h36.6v14.3Zm51.765-12.736c0,4.262-2.915,18.942-5.021,26.5l-2.537,8.313-6.21-2.268a87.792,87.792,0,0,0-14.518-3.885l-8.312-1.405V6098.7h18.3C5704.95,6098.647,5709.486,6099.028,5709.486,6100.161Zm41.612,2.049c0,10.58-8.959,33.792-16.786,43.667l-3.022,3.777-9.606-5.02c-5.291-2.642-9.718-5.56-9.718-6.207a102.638,102.638,0,0,1,3.292-11.227,173.33,173.33,0,0,0,4.535-19.32l1.514-9.232H5751.1Zm-93.376,57.108c0,18.026-.271,20.183-1.995,19.54a14.02,14.02,0,0,0-3.132-.759c-3.13,0-19.916-30.927-17.92-32.925,1.135-1.132,18.3-5.937,21.589-6.045C5657.343,6139.02,5657.721,6143.933,5657.721,6159.317Zm30.82-17a65.583,65.583,0,0,1,8.1,2.263c.485.651-5.021,11.712-11.227,22.185-6.423,10.957-6.423,10.849-9.609,11.874l-2.915.862v-40.48l4.155.759C5679.2,6140.156,5684.493,6141.288,5688.542,6142.316Zm-61.8,18.673c3.131,5.829,5.829,10.958,5.829,11.335,0,1.4-6.963-1.887-16.03-7.558-5.019-3.127-9.23-6.207-9.23-6.691,0-.863,11.119-7.555,12.846-7.72C5620.534,6150.355,5623.556,6155.16,5626.741,6160.989Zm87.923-7.231c3.4,2,6.206,3.885,6.206,4.424,0,2.646-23.205,16.136-24.826,14.519-.759-.862,10.091-22.346,11.334-22.346C5707.973,6150.355,5711.21,6151.867,5714.665,6153.758Z" transform="translate(0 -0.002)" fill="#999fff"/>
    </g>
  </g>
</svg>
