<svg xmlns="http://www.w3.org/2000/svg" viewBox="0 0 43 43"><g id="Capa_2" data-name="Capa 2"><g id="Capa_1-2" data-name="Capa 1"><path d="M21.5,0A21.5,21.5,0,1,0,43,21.5,21.51,21.51,0,0,0,21.5,0ZM22,34a3.21,3.21,0,0,1-2.25.82A3.25,3.25,0,0,1,17.44,34a2.67,2.67,0,0,1-.88-2,2.74,2.74,0,0,1,.88-2.07A3.18,3.18,0,0,1,19.72,29a3.14,3.14,0,0,1,2.25.84,2.74,2.74,0,0,1,.88,2.07A2.67,2.67,0,0,1,22,34Zm5.2-11.23a7.58,7.58,0,0,1-5,1.66L22,26.73H17.33L17.18,21H19a8.9,8.9,0,0,0,3.64-.59,2.14,2.14,0,0,0,1.25-2.14,2.37,2.37,0,0,0-.58-1.7,2.15,2.15,0,0,0-1.65-.62,2.31,2.31,0,0,0-1.73.63,2.34,2.34,0,0,0-.62,1.72h-5a6.33,6.33,0,0,1,.79-3.41,6,6,0,0,1,2.54-2.4,8.65,8.65,0,0,1,4.07-.88,7.85,7.85,0,0,1,5.32,1.73,6.15,6.15,0,0,1,2,4.9A5.62,5.62,0,0,1,27.17,22.74Z"/></g></g></svg>