<svg xmlns="http://www.w3.org/2000/svg" viewBox="0 0 75.77 76.25"><g id="Capa_2" data-name="Capa 2"><g id="Capa_1-2" data-name="Capa 1"><path d="M70.17,0H5.6A5.54,5.54,0,0,0,0,5.46V70.79a5.54,5.54,0,0,0,5.6,5.46H70.17a5.54,5.54,0,0,0,5.6-5.46V5.46A5.54,5.54,0,0,0,70.17,0Zm-58,16.79h5.45L21.7,27.32l4-10.53H31.1V33H26.59V24.05l-3.05,9H19.76l-3.08-9v9H12.17ZM20.66,56a4.81,4.81,0,0,0,3.91,1.75,4.91,4.91,0,0,0,4.68-3h7.59a11.48,11.48,0,0,1-4.17,6.89,12.61,12.61,0,0,1-8,2.54,13.08,13.08,0,0,1-6.62-1.64A11.25,11.25,0,0,1,13.6,58,14,14,0,0,1,12,51.26a14,14,0,0,1,1.56-6.68A11.25,11.25,0,0,1,18.05,40a13.08,13.08,0,0,1,6.62-1.64,12.56,12.56,0,0,1,8,2.54,11.48,11.48,0,0,1,4.17,6.89H29.25a4.91,4.91,0,0,0-4.68-2.95,4.83,4.83,0,0,0-3.91,1.74,7.07,7.07,0,0,0-1.46,4.67A7.08,7.08,0,0,0,20.66,56ZM38.19,33H33.68V16.79h4.51Zm18,31h-9L38.32,38.62h7.56L51.64,57l5.72-18.33h7.52ZM54.39,36,42.89,21h7V12h10v9h6Z"/></g></g></svg>