<svg xmlns="http://www.w3.org/2000/svg" viewBox="0 0 75.77 76.25"><g id="Capa_2" data-name="Capa 2"><g id="Capa_1-2" data-name="Capa 1"><path d="M70.17,0H5.6A5.54,5.54,0,0,0,0,5.46V70.79a5.54,5.54,0,0,0,5.6,5.46H70.17a5.54,5.54,0,0,0,5.6-5.46V5.46A5.54,5.54,0,0,0,70.17,0ZM20.66,56a4.82,4.82,0,0,0,3.91,1.75,4.92,4.92,0,0,0,4.68-3h7.59a11.44,11.44,0,0,1-4.17,6.89,12.59,12.59,0,0,1-8,2.54,13.09,13.09,0,0,1-6.62-1.64A11.24,11.24,0,0,1,13.6,58a15,15,0,0,1,0-13.42A11.25,11.25,0,0,1,18.05,40a13.09,13.09,0,0,1,6.62-1.64,12.53,12.53,0,0,1,8,2.54,11.47,11.47,0,0,1,4.17,6.89H29.25a4.91,4.91,0,0,0-4.68-2.95,4.83,4.83,0,0,0-3.91,1.74,7.07,7.07,0,0,0-1.46,4.67A7.11,7.11,0,0,0,20.66,56Zm35.53,8h-9L38.32,38.62h7.56L51.64,57l5.72-18.33h7.52Zm-1.8-28L42.91,21l-3.13,6.3v5.53h-4.6V27.33l-4.08-8.2V33H26.59V24.05l-3.05,9H19.76l-3.08-9v9H12.17V16.79h5.45L21.7,27.32l4-10.53h9.17l1.27,3.38c.43,1.21.86,2.33,1.31,3.59h.11c.45-1.26.91-2.38,1.36-3.59l1.29-3.36H45L42.93,21h7V12h10v9h6Z"/></g></g></svg>