<svg xmlns="http://www.w3.org/2000/svg" width="153.515" height="162.219" viewBox="0 0 153.515 162.219">
  <g id="Grupo_1" data-name="Grupo 1" transform="translate(2975.037 -1113)">
    <path id="Trazado_1" data-name="Trazado 1" d="M-2444.56,1127.47c-.617-4.583-1.279-9.664-5.358-12.5-4.179-2.909-9.256-1.86-11.5-1.4-9.323,1.926-14.565,10.63-19.973,19.322a88.439,88.439,0,0,0-8.36,17.505l7.849,9.219a49.647,49.647,0,0,0,7.011,7.987,49.749,49.749,0,0,0,11.341,7.821,115.354,115.354,0,0,1,2.358-12.038c.567-2.25,1.179-4.395,1.819-6.43a27.5,27.5,0,0,0,11.659-10.781C-2443.2,1138.4-2444.1,1130.863-2444.56,1127.47Z" transform="translate(-377.355)" fill="#999fff"/>
    <path id="Trazado_2" data-name="Trazado 2" d="M-2959.833,1156.957c.64,2.036,1.252,4.18,1.819,6.43a115.3,115.3,0,0,1,2.358,12.038,49.754,49.754,0,0,0,11.341-7.821,49.671,49.671,0,0,0,7.011-7.987l7.849-9.219a88.44,88.44,0,0,0-8.36-17.505c-5.408-8.692-10.651-17.4-19.974-19.322-2.24-.463-7.317-1.512-11.5,1.4-4.079,2.839-4.74,7.92-5.358,12.5-.457,3.393-1.359,10.933,3.151,18.706A27.5,27.5,0,0,0-2959.833,1156.957Z" fill="#999fff"/>
    <path id="Trazado_3" data-name="Trazado 3" d="M-2840.709,1301.342l4.286-6.091-22.682-18.771c-.869-1.326-12.064-17.773-32.849-17.989-20.586-.214-32.091,15.685-33.036,17.04a56.059,56.059,0,0,1-8.226,9.385,56.283,56.283,0,0,1-14.442,9.552l.375.616,3.346,6.561-4.519,8.69a51.9,51.9,0,0,0,3.117,21.508,51.607,51.607,0,0,0,5.74,11.106c-4.124.861-5.9,2.293-6.47,3.863-.663,1.838.17,4.328-1.654,6.8-1.772,2.4-4.848,3.156-7.171,3.42a7.227,7.227,0,0,0-4.83-2.885,7.557,7.557,0,0,0-6.4,2.731l2.4,3.76-3.487,2.164.735,1.1,3.522-2.062,1.7,2.664-2.835,2.338.735,1.1,3.039-1.971,2.806,4.392c4.417-2.088,6.709-5.944,5.948-8.957a5.664,5.664,0,0,0-2.286-3.154c.24-.128.633-.335,1.121-.579,3.536-1.768,4.656-1.764,5.73-2.963a6.971,6.971,0,0,0,1.287-2.757,18.1,18.1,0,0,0,.735-4.779c.194-.994,1.726-2,6.464-2.68a51.9,51.9,0,0,0,5.677,6.506l12.266,12.668a31.649,31.649,0,0,0-12.819-2.087,36.7,36.7,0,0,0-10.885,2.89l0,0c-.141.067-.262.126-.363.177a32.646,32.646,0,0,1,14.831-1.023,32.4,32.4,0,0,1,9.878,3.325,25.94,25.94,0,0,0-5.786-.257,36.713,36.713,0,0,0-10.885,2.89l0,0c-.142.067-.262.127-.363.177a32.653,32.653,0,0,1,14.831-1.023,32.243,32.243,0,0,1,7.012,1.987c-.461.007-.923.024-1.386.059a36.7,36.7,0,0,0-10.885,2.89l0,0c-.142.067-.262.126-.363.177a32.646,32.646,0,0,1,14.831-1.023c.519.085,1.022.184,1.515.289l2.057,2.124c1.075,1.545,2.3,3.179,3.708,4.859,1.33,1.592,2.647,3.023,3.911,4.3a16.713,16.713,0,0,0,11.341,3.911c6.9-.413,11.155-5.535,12.542-7.205a21.056,21.056,0,0,0,3.117-5.084l3.056-3.156c.074-.012.145-.027.219-.039a32.646,32.646,0,0,1,14.831,1.023c-.1-.051-.221-.11-.363-.177l0,0a36.7,36.7,0,0,0-10.885-2.89c-.463-.035-.925-.052-1.386-.059a32.235,32.235,0,0,1,7.012-1.987,32.654,32.654,0,0,1,14.831,1.023c-.1-.05-.221-.11-.363-.177l0,0a36.713,36.713,0,0,0-10.885-2.89,25.94,25.94,0,0,0-5.786.257,32.4,32.4,0,0,1,9.878-3.325,32.646,32.646,0,0,1,14.831,1.023c-.1-.051-.221-.11-.363-.177l0,0a36.711,36.711,0,0,0-10.885-2.89,30.322,30.322,0,0,0-11.242,1.547l10.986-11.347a51.924,51.924,0,0,0,12.514-19.162,51.891,51.891,0,0,0,3.117-21.508Zm-77.311,65.962.549-.439.708.731C-2917.174,1367.493-2917.593,1367.395-2918.02,1367.3Zm10.138-39.915c-1.245,4.243-5.218,8.445-8.975,8.227-3.33-.193-2.8-3.651-8.708-6.447-2.408-1.14-5.731-2.1-6.857-5.092a3.581,3.581,0,0,1-.141-.427c-1.017-4.042,2.912-9.144,7.479-11.219.416-.189,6.425-2.8,11.967.748A12.877,12.877,0,0,1-2907.883,1327.389Zm15.693,56.723c-4.885,0-9.532-4.467-8.9-7.192.6-2.621,6.047-3.424,8.9-3.424s8.3.8,8.9,3.424C-2882.657,1379.645-2887.3,1384.112-2892.189,1384.112Zm40.374-60.462a3.591,3.591,0,0,1-.141.427c-1.125,3-4.449,3.952-6.857,5.092-5.906,2.8-5.378,6.254-8.708,6.447-3.757.218-7.73-3.984-8.975-8.227a12.877,12.877,0,0,1,5.235-14.21c5.542-3.543,11.551-.937,11.967-.748C-2854.727,1314.505-2850.8,1319.608-2851.815,1323.65Z" transform="translate(-6.09 -113.131)" fill="#999fff"/>
  </g>
</svg>
