<svg xmlns="http://www.w3.org/2000/svg" width="246" height="230" viewBox="0 0 246 230">
  <g id="Grupo_17" data-name="Grupo 17" transform="translate(-1534 -2970)">
    <rect id="Rectángulo_30" data-name="Rectángulo 30" width="246" height="230" transform="translate(1534 2970)" fill="none"/>
  </g>
  <path id="Trazado_42" data-name="Trazado 42" d="M412-5480.543c6.783-15.99,6.362-30.078,6.058-37.556-.354-8.682-1.5-30.014-15.75-50.886-22.107-32.364-58.326-38.1-63-38.769-31.4-4.458-65.341,7.495-86.017,33.923-25.362,32.418-18.252,70.6-16.961,77.538a98.488,98.488,0,0,0,8.481,25.441,12.551,12.551,0,0,0-1.212,7.271,5.7,5.7,0,0,1,0,3.632c-.506,1.126-1.447,1.686-1.212,2.424a4.051,4.051,0,0,0,1.212,1.247v39.946l24.231-24.231c2.3,1.6,5.591,3.766,9.691,6.057a108.867,108.867,0,0,0,37.557,13.327c10.9,1.621,34.253,5.093,54.519-8.479a58.02,58.02,0,0,0,12.114-10.9l23.019,24.231v-38.77c1.589-1.587,2.423-2.422,2.423-2.422l-2.423-2.424v-7.269A77.765,77.765,0,0,0,412-5480.543ZM355.63-5594.338c2.072.718,4.975,1.749,8.372,3.248-20.309-.534-53.732-.419-72.645-.314,3.432-1.552,6.053-2.492,7.332-2.934A88.487,88.487,0,0,1,355.63-5594.338Zm-48.289,58.286c-.3-1.323-.87-2.3-.371-2.968a1.9,1.9,0,0,1,2.226-.372c1.619.9.993,4.759.742,6.306-.309,1.91-.829,5.111-3.338,7.419-1.543,1.42-3.078,1.8-2.968,2.226.2.756,5.221.049,5.564,0,15.462-2.223,29.785-14.915,36.724-10.386a5.672,5.672,0,0,1,2.6,4.451c.042,5.35-10.9,9.246-14.1,10.386a45.518,45.518,0,0,1-15.209,2.6c1.119,2.963,1,5.553-.3,6.462a1.873,1.873,0,0,1-1.928.216c-.279-.183-.705-.667-.372-4.08.237-2.422.356-3.635.743-4.081,1.646-1.9,5.13.2,7.048-1.484.849-.749,1.493-2.33.742-5.936-1.673.646-3.805,1.421-6.306,2.227-11.476,3.691-14.614,2.774-16.322,1.855-.848-.458-2.121-1.143-2.226-2.228-.227-2.336,5.315-3.019,6.677-7.418A11.01,11.01,0,0,0,307.34-5536.052Zm-4.451-16.694a6.672,6.672,0,0,1-5.935,3.71c-.213,0-4.242,0-5.935-3.338a6.443,6.443,0,0,1,.742-6.678c1.876-2.494,5.845-3.863,8.9-1.854A6.567,6.567,0,0,1,302.89-5552.746Zm59.353-1.112c-.127.242-1.956,3.6-5.564,3.709a6.837,6.837,0,0,1-6.306-4.451c-1.12-2.832-.428-6.723,2.6-8.532a6.771,6.771,0,0,1,8.16,1.112A7.027,7.027,0,0,1,362.243-5553.858Zm-119.855,30.445A75.357,75.357,0,0,1,247.8-5548.3a76.668,76.668,0,0,1,24.412-31.6c.308,5.883.42,27.777.57,67.1A218.976,218.976,0,0,1,242.388-5523.413Zm135.2,12.4c1.313-39.042,2.29-61.2,3-70.317a72.8,72.8,0,0,1,16.232,17.274,76.893,76.893,0,0,1,12.758,43.061A221.012,221.012,0,0,1,377.588-5511.009Z" transform="translate(-202.858 5627.668)" fill="#999fff"/>
</svg>
