<svg xmlns="http://www.w3.org/2000/svg" width="189.752" height="162.219" viewBox="0 0 189.752 162.219">
  <g id="Grupo_2" data-name="Grupo 2" transform="translate(-255.295 -1479.88)">
    <path id="Trazado_4" data-name="Trazado 4" d="M729.221,2063.648a12.557,12.557,0,0,0-1.049.874Z" transform="translate(-374.672 -462.534)" fill="#999fff"/>
    <path id="Trazado_5" data-name="Trazado 5" d="M646.055,2068.224c-.214,2.594-1.378,4.41-2.56,4.518a2.413,2.413,0,0,1-1.454-.416,2.61,2.61,0,0,1-1.038-1.454,2.263,2.263,0,0,1-1.661,1.038,1.953,1.953,0,0,1-.831-.208c-1.466-.746-1.679-3.776-1.693-4.009l-4.033-1.311a9.3,9.3,0,0,1,.545,2.4,9.723,9.723,0,0,1-.975,5.116,18.238,18.238,0,0,0,.965,2.375,12,12,0,0,0,3.53,4.776,6.711,6.711,0,0,0,4.361,1.662,5.613,5.613,0,0,0,2.292-.619,1.657,1.657,0,0,0-.631-.627c-.5-.267-.814-.053-1.661-.208a11.59,11.59,0,0,1-1.246-.415c-.961-.346-1.122-.455-1.246-.623a1.479,1.479,0,0,1-.208-1.039,3.693,3.693,0,0,1,1.869-2.492,4.353,4.353,0,0,1,2.907-.415,5.541,5.541,0,0,1,2.7,1.453,7.72,7.72,0,0,1,1.454,1.662l-.623.415a5.268,5.268,0,0,0-2.907-2.7,3.9,3.9,0,0,0-2.907,0c-1.253.573-2.215,2.005-1.869,2.7.152.307.586.412,1.454.623a22.017,22.017,0,0,1,2.284.416,3.83,3.83,0,0,1,1.349.9q.665-.418,1.351-.9a30.555,30.555,0,0,0,3.738-3.115l.069.173a10.838,10.838,0,0,1-.4-5.408,10.622,10.622,0,0,1,3.275-5.8l-.036.03Z" transform="translate(-298.753 -464.701)" fill="#999fff"/>
    <path id="Trazado_6" data-name="Trazado 6" d="M714.332,2121.831c.1.286.212.576.344.868l0,0Z" transform="translate(-363.706 -508.633)" fill="#999fff"/>
    <path id="Trazado_7" data-name="Trazado 7" d="M443.22,1560.023a33.3,33.3,0,0,0-4.649-10.073,31.415,31.415,0,0,0-6.2-6.586,17.266,17.266,0,0,1-1.55,9.685,14.023,14.023,0,0,1-6.2,6.586,12.758,12.758,0,0,1-7.612,1.093,34.664,34.664,0,0,0,.109-5.644c-.27-4.357-.882-14.231-7.186-24.292a46.41,46.41,0,0,0-7.758-9.312l12.374-10.658a99.912,99.912,0,0,0-12.061-11.3,26.294,26.294,0,0,0,1.6-7.3c.173-2.409.3-4.559-.775-6.973a7.267,7.267,0,0,0-8.91-4.649c-2.216.451-3.615,1.606-5.424,3.1a23.042,23.042,0,0,0-4.261,4.649l.043.029a96.582,96.582,0,0,0-15.152-5.84l-5.094,23.016a121.99,121.99,0,0,0-19.968-1.859c-1-.011-1.99-.021-2.983-.022a34.6,34.6,0,0,1-4.884-5.251c-3.339-4.447-4.072-7.652-4.261-9.3-.235-2.047-.414-3.6.387-5.036,1.61-2.878,6.44-3.93,12.009-2.712a41.492,41.492,0,0,0-20.532-.387c-5.116,1.251-11.933,2.919-14.334,8.523-1.549,3.615-.6,7.346,0,9.685a21.861,21.861,0,0,0,5.114,9.322,74.344,74.344,0,0,0-9.121,4.521c-4.144,2.374-7.3,4.183-10.692,7.673-4.156,4.278-6.081,8.426-8.225,13.047a77.054,77.054,0,0,0-5.683,18.2c-1.837.19-3.426.273-4.709.307-3.919.1-4.957-.26-5.811-.775a6.681,6.681,0,0,1-3.1-5.424c-.038-3.766,3.855-6.135,3.487-6.586-.446-.547-6.824,2.114-11.235,8.135a23.292,23.292,0,0,0-4.649,15.108,23.056,23.056,0,0,0,5.043,13.029c-1.092,2.891-1.071,5.624-1.01,8.875.1,5.29.179,9.424,3.068,13.253.654.866,3.682,4.879,8.714,5.355.839.079,4.579.433,6.866-1.9,2.709-2.758,1.647-7.519,2.091-7.55.528-.038.308,6.824,3.068,13.253,2.967,6.911,8.318,10.848,12.006,13.562,6.049,4.451,11.83,6.328,16.6,7.878a89.354,89.354,0,0,0,9.789,2.517c7.889,1.575,13.946,2.324,13.946,2.324a26.4,26.4,0,0,1,9.476,3.219c.273.175.5.341.5.341a13.067,13.067,0,0,1,3.377,4.314c.185.379.3.66.4.891l6.553-.112a15.133,15.133,0,0,0,1.447-2.486c1.426-2.526,3.9-3.685,10.073-5.8,9.043-3.1,10.232-2.836,14.594-4.465a53.185,53.185,0,0,0,16.882-10.431,45.285,45.285,0,0,0,9.238-11.753,29.565,29.565,0,0,0,2.241-5.581c.191-.671.354-1.339.492-1.969-.019.4-.025.817-.014,1.247.049,1.84.086,3.263,1.023,4.418,1.345,1.658,3.706,1.729,4.858,1.763,4.466.133,7.822-2.583,9.023-3.583,4.324-3.6,5.651-8.272,6.406-10.927a24.012,24.012,0,0,0,1.3-8.383,12.621,12.621,0,0,0,2.866-.773c4.839-1.947,6.816-6.314,7.361-7.361C446.235,1570.858,444.752,1565.528,443.22,1560.023ZM339.26,1586.651a4.274,4.274,0,0,1,4.261-.775c2.231.714,3.806,3.186,3.874,6.2a.268.268,0,0,1-.266.287.257.257,0,0,1-.208-.208,7.629,7.629,0,0,0-.623-2.7,5.2,5.2,0,0,0-2.7-3.115,3.743,3.743,0,0,0-3.946.623,3.917,3.917,0,0,0,.415,5.192.348.348,0,0,1,0,.208.291.291,0,0,1-.208.208.284.284,0,0,1-.214-.107C339.454,1592.262,337.3,1588.69,339.26,1586.651Zm-42.945-35.982a10.6,10.6,0,0,1,4.771-2.772c3.023-.833,6.673-.427,6.9.589.069.307-.179.646-.52.958a14.964,14.964,0,0,0-2.077-.208,11.322,11.322,0,0,0-3.946.415,9.21,9.21,0,0,0-4.154,2.907c-1.232,1.557-1.515,3.067-2.492,3.115a1.456,1.456,0,0,1-1.02-.465A11.5,11.5,0,0,1,296.316,1550.668Zm9.2,45.457a21.616,21.616,0,0,1-9.3-5.811,22.423,22.423,0,0,1-5.811-13.946,23.568,23.568,0,0,1,4.649-15.5,22.375,22.375,0,0,1,8.91-6.973,21.874,21.874,0,0,1,12.784-1.162,22.84,22.84,0,0,1,10.46,5.036,22.278,22.278,0,0,1,6.2,8.91,22.9,22.9,0,0,1,.775,13.559,22.674,22.674,0,0,1-5.423,10.072,23.973,23.973,0,0,1-23.244,5.811Zm64.117,7.268a10.323,10.323,0,0,0-14.433-1.765,9.852,9.852,0,0,0-4.153,6.23,9.58,9.58,0,0,0,1.454,6.646,10.193,10.193,0,0,0,4.569,3.946,9.968,9.968,0,0,0,5.607.623l-.078,1.008a11.164,11.164,0,0,1-5.961-.68,10.554,10.554,0,0,1-4.993-4.093,10.021,10.021,0,0,1-.67-1.242,17.623,17.623,0,0,1-2.49,2.282c-1.663,1.253-3.449,2.6-5.815,2.7a8.2,8.2,0,0,1-4.984-1.661,11.581,11.581,0,0,1-4.594-7.2c-.1.177-.251.43-.446.725a11.191,11.191,0,0,1-3.792,3.763,10.041,10.041,0,0,1-6.138,1.1l.4-.957a8.526,8.526,0,0,0,8.722-4.153,9.576,9.576,0,0,0,1.661-6.438,7.017,7.017,0,0,0-2.077-4.569c-3.185-2.785-8.438-.521-9.138-.208a11.411,11.411,0,0,0-3.53,2.492l-.525-.828a12.129,12.129,0,0,1,3.766-2.6l.218-.094c.379-.158,6.051-2.425,9.734.449a6.464,6.464,0,0,1,1.377,1.486,26.03,26.03,0,0,0,8.722,2.492,26.333,26.333,0,0,0,12.668-1.869l-.162.135.222-.163a11.483,11.483,0,0,1,15.486,1.713Zm25.043-20.469A22.677,22.677,0,0,1,389.249,1593a23.973,23.973,0,0,1-23.244,5.811,21.612,21.612,0,0,1-9.3-5.811,22.422,22.422,0,0,1-5.811-13.946,23.565,23.565,0,0,1,4.649-15.5,22.37,22.37,0,0,1,8.91-6.973,21.872,21.872,0,0,1,12.784-1.162,22.84,22.84,0,0,1,10.46,5.036,22.28,22.28,0,0,1,6.2,8.91A22.906,22.906,0,0,1,394.673,1582.924Zm1.193-24.966c-.977-.048-1.26-1.558-2.492-3.115a9.209,9.209,0,0,0-4.153-2.907,11.322,11.322,0,0,0-3.946-.415,15.012,15.012,0,0,0-2.077.208c-.341-.312-.589-.651-.52-.958.229-1.015,3.879-1.421,6.9-.588a10.6,10.6,0,0,1,4.771,2.772,11.5,11.5,0,0,1,2.534,4.54A1.456,1.456,0,0,1,395.866,1557.958Z" transform="translate(0)" fill="#999fff"/>
  </g>
</svg>
