<svg xmlns="http://www.w3.org/2000/svg" width="118.895" height="162.219" viewBox="0 0 118.895 162.219" fill="#FFFFFF">
  <path id="Trazado_8" data-name="Trazado 8" d="M3335.085-528.174c-2.423-8.336-6.527-12.675-6.1-22.369.087-1.977.249-1.59.813-7.524.874-9.183,1.311-13.774.813-18.912a50.105,50.105,0,0,0-3.253-13.421c-1.189-.421-2.725-.753-3.661,0-.961.775-.689,2.215-.61,5.9.15,7-.7,8.2-1.423,8.744a2.506,2.506,0,0,1-2.44.407c-1.307-.661-1.237-3.173-1.22-4.677.093-8.2.15-13.328-2.44-15.658-1.76-1.584-4.319-1.493-6.3-1.424-1.633.058-5.724.2-7.117,2.644-1.68,2.943,2.254,6.249.407,9.964-.849,1.707-2.676,3.013-3.66,2.644-1.138-.427-.441-2.827-2.44-5.694a6.158,6.158,0,0,0-2.033-2.034c-2.2-1.255-5.538-.936-6.914.813-.95,1.208-.206,2.133-1.22,3.66-.976,1.47-2.567,1.969-4.067,2.44s-5.393,1.693-7.728-.2c-1.542-1.253-.964-2.7-2.644-3.66a5.844,5.844,0,0,0-4.271-.2,6.7,6.7,0,0,0-3.66,2.034c-1.334,1.564-.829,2.826-1.831,3.457-1.249.787-3.741-.1-5.287-1.627-2.932-2.895-.722-6.366-3.661-11.794-.873-1.613-1.847-3.411-3.864-4.27-3.386-1.442-8.184.412-10.167,3.66-1.966,3.218-.865,7.3-.2,9.761,1.077,4,2.759,5.078,2.237,7.931a8.271,8.271,0,0,1-2.847,4.677c-1.028.812-2.288,1.806-3.253,1.423-1.937-.767.05-5.991-2.644-12.2-.763-1.76-1.809-4.171-3.863-4.677-2.985-.735-6.2,3.024-6.914,3.864-5.807,6.8-2.266,19.389,0,29.893,6.827,31.643-.447,32.628,7.117,54.092a112.474,112.474,0,0,0,16.065,29.893c3.764,8.688,6.367,15.14,8.337,20.335.783,2.065,1.855,4.956,4.677,6.914,3.063,2.126,6.057,1.67,10.167,1.83,9.887.385,10.577,3.723,19.115,4.27a37.781,37.781,0,0,0,16.878-3.05c2.39-1.033,13.65-5.9,18.3-17.082,2.8-6.732,3.027-15.322,3.05-16.471.058-2.894-.181-3.946.2-6.3,1.07-6.569,4.911-10.6,6.711-13.015C3341.415-505.506,3335.518-526.685,3335.085-528.174Zm-86.018,43.314c-7.671-5.257-10.4-17.45-4.677-28.266a5.984,5.984,0,0,0-2.237-1.22c-2.492-.71-5.072.444-5.9.813-1.5.67-2.139,1.329-2.644,1.017-.545-.338-.529-1.562-.2-2.44.8-2.161,3.792-3.1,5.9-3.254a11.306,11.306,0,0,1,5.693,1.22c8.35,3.768,9.4,1.225,18.1,5.084,5.7,2.529,8.3,4.974,10.574,3.66,1.83-1.059,2.063-3.76,3.864-3.864a2.739,2.739,0,0,1,2.44,1.627c.506,1.156-.124,2.36-1.017,4.067a15.986,15.986,0,0,1-2.644,3.66,15.312,15.312,0,0,1,.407,8.337c-1.726,7.128-8.322,10.2-9.558,10.778A18.822,18.822,0,0,1,3249.067-484.86Zm61.616,22.165c-1.9,1.105-4.775-1.948-8.134-3.457-3.377-1.517-7.132-.808-14.642.61-7.794,1.472-12.175,2.3-16.675,5.694-3.04,2.294-5.082,4.965-7.117,4.27a3.368,3.368,0,0,1-2.034-3.66c.617-2.2,4.734-2.012,11.185-3.864,6.008-1.725,5.15-2.668,11.794-4.88,5.63-1.875,10.345-3.445,16.065-2.44,4.855.853,10.677,3.6,10.574,6.1A2.089,2.089,0,0,1,3310.683-462.695Zm17.488-55.922a2.83,2.83,0,0,1-.813,1.423c-2.319-4.578-6.465-6.94-9.761-6.1a6.339,6.339,0,0,0-3.457,2.44,20.747,20.747,0,0,1,8.337,8.337,20.186,20.186,0,0,1,1.83,14.438c-.391,1.491-2.7,9.564-10.778,12.811-6.111,2.457-13.847,1.477-18.5-3.254-4.249-4.314-4.561-10.348-4.677-12.608a22.8,22.8,0,0,1,.61-6.507,5.744,5.744,0,0,1-4.067-1.017,6.345,6.345,0,0,1-1.627-7.321.906.906,0,0,1,.61,0c.978.4.2,2.746,1.22,4.474a4.7,4.7,0,0,0,3.457,2.034c2.582.228,4.228-2.534,7.118-5.491,6.152-6.294,12.963-8.377,17.488-9.761,2.6-.8,4.284-1.02,6.1-.61C3324.952-524.493,3328.681-521.15,3328.171-518.616Z" transform="translate(-3218.453 599.436)" fill="#FFFFFF"/>
</svg>
