<svg xmlns="http://www.w3.org/2000/svg" width="246" height="230" viewBox="0 0 246 230">
  <g id="Grupo_14" data-name="Grupo 14" transform="translate(-1534 -2970)">
    <rect id="Rectángulo_30" data-name="Rectángulo 30" width="246" height="230" transform="translate(1534 2970)" fill="none"/>
    <g id="Grupo_13" data-name="Grupo 13" transform="translate(-2336.058 -2448.937)">
      <path id="Trazado_14" data-name="Trazado 14" d="M4060.715,5600.014c-1.406.073-30.639,1.2-41.562-17.98-3.468-6.091-3.87-12.086-4.127-15.921-.774-11.551,2.576-28.859,14.887-35.667,1.277-.7,7.411-4.095,14-2.355,4.55,1.2,6.91,4.213,10.168,7.663a127.123,127.123,0,0,0,26.973,20.488,78.515,78.515,0,0,0,17.156,7.173,125.772,125.772,0,0,0,13.443-29.613c-6.284-4.715-15.528-11.9-26.235-21.225-4.131-3.6-7.6-6.748-10.586-9.557a64.577,64.577,0,0,0,13.24-30.824,63.831,63.831,0,0,0-2.064-26.825,73.249,73.249,0,0,0-50.786,20.658,177.127,177.127,0,0,1-85.268-.824A63.121,63.121,0,0,0,3899.34,5446a73.265,73.265,0,0,0,12.317,58.08c-2.035,1.991-4.319,4.125-6.933,6.437a222.389,222.389,0,0,1-30.265,22.5,125.864,125.864,0,0,0,12.5,28.534,77.609,77.609,0,0,0,14.62-6.4,126.908,126.908,0,0,0,26.972-20.491c3.26-3.45,5.62-6.461,10.171-7.663,6.589-1.738,12.724,1.653,14,2.357,12.311,6.807,15.661,24.116,14.887,35.67-.258,3.833-.659,9.829-4.127,15.916-10.922,19.184-40.158,18.055-41.563,17.983-.715-.311-1.483-.663-2.281-1.04a121.964,121.964,0,0,0,150.355-2.664Q4065.354,5597.619,4060.715,5600.014Zm-56.751-8.238c-.576.7-2.065,2.167-12.577,2.16-9.008,0-10.651-1.086-11.594-1.964-1.469-1.367-2.946-3.822-2.554-6.29.791-5,8.854-7.552,14.541-7.467,4.146.062,11.757,1.6,13.364,6.88A7.445,7.445,0,0,1,4003.963,5591.775Z" transform="translate(0 0)" fill="#999fff"/>
      <circle id="Elipse_10" data-name="Elipse 10" cx="11.542" cy="11.542" r="11.542" transform="translate(3929.795 5550.691)" fill="#999fff"/>
      <circle id="Elipse_11" data-name="Elipse 11" cx="11.542" cy="11.542" r="11.542" transform="translate(4027.761 5550.691)" fill="#999fff"/>
    </g>
  </g>
</svg>
