<svg id="layer1" xmlns="http://www.w3.org/2000/svg" width="114.299" height="161.144" viewBox="0 0 114.299 161.144">
  <g id="g3013" transform="translate(0 0)">
    <path id="Sustracción_11" data-name="Sustracción 11" d="M57.08,129.627h0L10.4,116.669,0,0H114.3L103.886,116.651,57.08,129.627ZM26.556,74.463h0l2,22.467,29.311,8.137.066-.018v0l29.285-8.116.215-2.418L90.8,56.842,91.149,53l2.583-28.962H22.057l1.3,14.309H78.051L76.749,53H24.634l1.282,14.309H75.508L73.847,85.866,57.888,90.174v0l-.013,0-15.936-4.3L40.92,74.463H26.556Z" transform="translate(0 31.517)" fill="#fff"/>
    <path id="path2999" d="M160,0h17.331V7.247H167.247v7.247h10.083v7.247H160Z" transform="translate(-132.313)" fill="#fff"/>
    <path id="path3001" d="M226,0h17.331V6.3H233.247v1.26h10.083V22.057H226V15.44h10.083V14.18H226Z" transform="translate(-177.516)" fill="#fff"/>
    <path id="path3003" d="M292,0h17.331V6.3H299.247v1.26h10.083V22.057H292V15.44h10.083V14.18H292Z" transform="translate(-222.719)" fill="#fff"/>
  </g>
</svg>
