<svg id="HTML" xmlns="http://www.w3.org/2000/svg" width="114.186" height="161.144" viewBox="0 0 114.186 161.144">
  <path id="Trazado_20" data-name="Trazado 20" d="M108.4,0h7.239V7.176h6.672V0h7.239V21.717h-7.239V14.478H115.7v7.239h-7.3M139.118,7.239h-6.389V0h20.049V7.239h-6.421V21.717h-7.239M155.956,0h7.585L168.2,7.648,172.858,0h7.585V21.717H173.2V10.953l-5.067,7.805-5.067-7.805V21.717h-7.113M184.031,0h7.239V14.541h10.26v7.176h-17.5" transform="translate(-97.762)" fill="#fff"/>
  <path id="Sustracción_9" data-name="Sustracción 9" d="M57,129.482h0l-46.612-12.9L0,0H114.186L103.8,116.515,57,129.482Zm-31.253-55.3L27.76,96.623l29.333,8.183v-.08l29.207-8.1,3.934-43.874H38.209L36.887,38.114H91.525l1.322-14.289H21.213l3.9,43.182H57.03v.031H74.655L72.987,85.608,57.061,89.88,41.1,85.608,40.1,74.183H25.745Z" transform="translate(0 31.662)" fill="#fff"/>
</svg>
