<svg id="Bootstrap_logo" xmlns="http://www.w3.org/2000/svg" width="57.319" height="45.525" viewBox="0 0 57.319 45.525">
  <path id="Sustracción_8" data-name="Sustracción 8" d="M45.418,45.525H11.905a5.438,5.438,0,0,1-3.932-1.679,5.875,5.875,0,0,1-1.65-4.27,32.1,32.1,0,0,0-1-9.965c-1.05-3.392-2.79-5.157-5.319-5.4v-2.9c2.529-.24,4.269-2.006,5.319-5.4a32.1,32.1,0,0,0,1-9.965,5.876,5.876,0,0,1,1.65-4.27A5.438,5.438,0,0,1,11.905,0H45.418A5.438,5.438,0,0,1,49.35,1.679,5.876,5.876,0,0,1,51,5.95a32.1,32.1,0,0,0,1,9.965c1.05,3.392,2.789,5.157,5.315,5.4v2.9c-2.526.24-4.265,2.005-5.315,5.4a32.1,32.1,0,0,0-1,9.965,5.875,5.875,0,0,1-1.65,4.27A5.438,5.438,0,0,1,45.418,45.525Zm-25.5-34.874V34.864H29.9c5.314,0,8.486-2.559,8.486-6.846,0-3.173-2.273-5.554-5.657-5.923v-.134a5.426,5.426,0,0,0,4.433-5.269c0-3.67-2.871-6.041-7.313-6.041Zm9.193,21.143H23.78v-7.97h5.105a10.4,10.4,0,0,1,2.41.251,5,5,0,0,1,1.738.748,3.2,3.2,0,0,1,1.052,1.239,3.987,3.987,0,0,1,.354,1.723,3.522,3.522,0,0,1-1.358,2.987A6.559,6.559,0,0,1,29.109,31.794Zm-1-10.84H23.78V13.722h5.14a6.957,6.957,0,0,1,1.863.229,3.875,3.875,0,0,1,1.375.673,2.877,2.877,0,0,1,.851,1.094,3.942,3.942,0,0,1-.049,3.091,3.132,3.132,0,0,1-1,1.174,4.766,4.766,0,0,1-1.628.724A9.108,9.108,0,0,1,28.109,20.954Z" transform="translate(0)" />
</svg>
