<svg xmlns="http://www.w3.org/2000/svg" xmlns:xlink="http://www.w3.org/1999/xlink" width="81.995" height="50.218" viewBox="0 0 81.995 50.218">
  <defs>
    <clipPath id="clip-path">
      <path id="Trazado_37" data-name="Trazado 37" d="M202.635,226.051l-7.809,4.507a.943.943,0,0,0-.472.817V240.4a.942.942,0,0,0,.472.817l7.809,4.511a.945.945,0,0,0,.943,0l7.808-4.511a.945.945,0,0,0,.471-.817v-9.021a.942.942,0,0,0-.473-.817l-7.807-4.507a.949.949,0,0,0-.945,0" transform="translate(-194.354 -225.925)" />
    </clipPath>
    <clipPath id="clip-path-2">
      <path id="Trazado_39" data-name="Trazado 39" d="M195.4,241.086a.945.945,0,0,0,.278.244l6.7,3.869,1.116.641a.946.946,0,0,0,.544.123.964.964,0,0,0,.185-.034l8.236-15.08a.935.935,0,0,0-.219-.174l-5.113-2.953-2.7-1.555a.986.986,0,0,0-.245-.1Zm0,0" transform="translate(-195.398 -226.069)" />
    </clipPath>
    <clipPath id="clip-path-3">
      <path id="Trazado_41" data-name="Trazado 41" d="M205.185,225.938a.953.953,0,0,0-.377.121l-7.787,4.494,8.4,15.294a.936.936,0,0,0,.335-.116l7.809-4.511a.946.946,0,0,0,.456-.644l-8.56-14.623a.98.98,0,0,0-.191-.019c-.026,0-.052,0-.078,0" transform="translate(-197.021 -225.934)" />
    </clipPath>
  </defs>
  <g id="Node.js_logo" transform="translate(0 0)">
    <path id="Trazado_32" data-name="Trazado 32" d="M179.239,182.114a1.559,1.559,0,0,1-.777-.208l-2.472-1.464c-.369-.206-.189-.28-.067-.322a4.991,4.991,0,0,0,1.118-.51.188.188,0,0,1,.184.013l1.9,1.127a.251.251,0,0,0,.229,0l7.4-4.274a.233.233,0,0,0,.113-.2v-8.545a.238.238,0,0,0-.115-.2l-7.4-4.271a.228.228,0,0,0-.228,0l-7.4,4.271a.236.236,0,0,0-.117.2v8.545a.228.228,0,0,0,.115.2l2.028,1.171c1.1.551,1.774-.1,1.774-.751v-8.434a.211.211,0,0,1,.215-.213h.938a.212.212,0,0,1,.213.213V176.9a2.053,2.053,0,0,1-2.193,2.311,3.174,3.174,0,0,1-1.707-.463l-1.942-1.12a1.566,1.566,0,0,1-.777-1.351v-8.545a1.556,1.556,0,0,1,.777-1.349l7.412-4.276a1.624,1.624,0,0,1,1.557,0l7.4,4.278a1.562,1.562,0,0,1,.777,1.349v8.545a1.567,1.567,0,0,1-.777,1.349l-7.4,4.276a1.556,1.556,0,0,1-.78.208" transform="translate(-138.712 -131.896)" />
    <path id="Trazado_33" data-name="Trazado 33" d="M213.761,193.541c-3.24,0-3.919-1.487-3.919-2.735a.213.213,0,0,1,.214-.213h.956a.214.214,0,0,1,.211.181c.145.975.575,1.466,2.534,1.466,1.561,0,2.224-.353,2.224-1.18,0-.476-.189-.83-2.613-1.068-2.028-.2-3.281-.647-3.281-2.269,0-1.494,1.26-2.384,3.372-2.384,2.371,0,3.546.823,3.694,2.591a.216.216,0,0,1-.057.165.22.22,0,0,1-.158.069h-.962a.212.212,0,0,1-.208-.167c-.232-1.025-.791-1.353-2.313-1.353-1.7,0-1.9.593-1.9,1.038,0,.539.234.7,2.532,1,2.276.3,3.357.728,3.357,2.328s-1.346,2.537-3.692,2.537m9.019-9.062h.248a.216.216,0,0,0,.243-.226c0-.219-.15-.219-.234-.219h-.256Zm-.3-.7h.55c.189,0,.56,0,.56.423a.368.368,0,0,1-.3.393c.221.015.235.159.265.363a1.563,1.563,0,0,0,.083.423h-.339c-.009-.074-.061-.482-.061-.5-.022-.091-.054-.135-.167-.135h-.28v.641h-.31Zm-.662.8A1.2,1.2,0,1,0,223,183.391a1.2,1.2,0,0,0-1.192,1.194m2.625.006A1.427,1.427,0,1,1,223,183.161a1.431,1.431,0,0,1,1.427,1.427" transform="translate(-170.947 -149.211)" />
    <path id="Trazado_34" data-name="Trazado 34" d="M17.6,16.784a.948.948,0,0,0-.474-.824L9.272,11.443a.917.917,0,0,0-.432-.124H8.759a.933.933,0,0,0-.434.124L.475,15.96A.955.955,0,0,0,0,16.785L.017,28.951a.467.467,0,0,0,.235.41.449.449,0,0,0,.471,0l4.667-2.673a.957.957,0,0,0,.475-.823V20.181a.945.945,0,0,1,.474-.821l1.987-1.144a.943.943,0,0,1,.475-.128.926.926,0,0,1,.472.127l1.986,1.144a.946.946,0,0,1,.475.821v5.683a.96.96,0,0,0,.475.823l4.664,2.671a.463.463,0,0,0,.475,0,.476.476,0,0,0,.235-.41Zm37.046,6.335a.236.236,0,0,1-.119.2l-2.7,1.554a.238.238,0,0,1-.237,0l-2.7-1.554a.235.235,0,0,1-.119-.2V20.005a.238.238,0,0,1,.117-.206l2.7-1.557a.24.24,0,0,1,.239,0l2.7,1.557a.236.236,0,0,1,.119.206ZM55.371.06a.474.474,0,0,0-.705.415V12.523a.332.332,0,0,1-.5.287L52.2,11.677a.947.947,0,0,0-.948,0L43.4,16.21a.946.946,0,0,0-.475.819V26.1a.949.949,0,0,0,.475.821l7.853,4.536a.952.952,0,0,0,.948,0l7.853-4.537a.95.95,0,0,0,.475-.821V3.5a.95.95,0,0,0-.487-.829ZM81.523,19.923a.948.948,0,0,0,.471-.82v-2.2a.949.949,0,0,0-.472-.82l-7.8-4.53a.948.948,0,0,0-.951,0l-7.852,4.532a.947.947,0,0,0-.475.821v9.064a.952.952,0,0,0,.478.825l7.8,4.447a.946.946,0,0,0,.93.006l4.719-2.623a.473.473,0,0,0,0-.825l-7.9-4.534a.471.471,0,0,1-.239-.41V20.016a.471.471,0,0,1,.237-.411l2.458-1.418a.469.469,0,0,1,.473,0l2.46,1.418a.473.473,0,0,1,.237.41V22.25a.473.473,0,0,0,.712.41Zm0,0" transform="translate(0 0)"  fill-rule="evenodd"/>
    <path id="Trazado_35" data-name="Trazado 35" d="M387.512,105.092a.18.18,0,0,1,.182,0l1.507.869a.182.182,0,0,1,.091.158v1.74a.182.182,0,0,1-.091.158l-1.507.869a.18.18,0,0,1-.182,0l-1.506-.869a.181.181,0,0,1-.093-.158v-1.74a.18.18,0,0,1,.091-.158Zm0,0" transform="translate(-314.383 -85.592)"  fill-rule="evenodd"/>
    <g id="Grupo_9" data-name="Grupo 9" transform="translate(21.51 11.475)" clip-path="url(#clip-path)">
      <path id="Trazado_36" data-name="Trazado 36" d="M185.065,199.389l-22-10.786-11.282,23.016,22,10.786Zm0,0" transform="translate(-159.67 -195.521)" />
    </g>
    <g id="Grupo_10" data-name="Grupo 10" transform="translate(21.703 11.502)" clip-path="url(#clip-path-2)">
      <path id="Trazado_38" data-name="Trazado 38" d="M144.07,197.282l15.537,21.029,20.548-15.182L164.617,182.1Zm0,0" transform="translate(-153.584 -190.251)" />
    </g>
    <g id="Grupo_11" data-name="Grupo 11" transform="translate(22.004 11.477)" clip-path="url(#clip-path-3)">
      <path id="Trazado_40" data-name="Trazado 40" d="M197.02,225.934v19.913h16.994V225.934Zm0,0" transform="translate(-197.02 -225.934)" />
    </g>
  </g>
</svg>
