<svg xmlns="http://www.w3.org/2000/svg" width="78.842" height="58.877" viewBox="0 0 78.842 58.877">
  <g id="Grupo_5" data-name="Grupo 5" transform="translate(-3874.46 -5445.371)">
    <path id="Trazado_14" data-name="Trazado 14" d="M3936.37,5496.773c-.468.024-10.185.4-13.815-5.977a11.733,11.733,0,0,1-1.372-5.291c-.258-3.841.856-9.594,4.948-11.855a6.571,6.571,0,0,1,4.654-.784c1.512.4,2.3,1.4,3.38,2.547a42.241,42.241,0,0,0,8.965,6.81,26.087,26.087,0,0,0,5.7,2.384,41.79,41.79,0,0,0,4.469-9.843c-2.089-1.567-5.161-3.956-8.72-7.054-1.373-1.2-2.526-2.244-3.519-3.177a21.462,21.462,0,0,0,4.4-10.247,21.208,21.208,0,0,0-.686-8.916,24.342,24.342,0,0,0-16.88,6.866,58.886,58.886,0,0,1-28.343-.273,20.978,20.978,0,0,0-16.824-6.384,24.347,24.347,0,0,0,4.094,19.305c-.676.662-1.436,1.371-2.3,2.14a73.946,73.946,0,0,1-10.06,7.479,41.808,41.808,0,0,0,4.155,9.485,25.8,25.8,0,0,0,4.86-2.127,42.208,42.208,0,0,0,8.965-6.81c1.083-1.147,1.868-2.148,3.381-2.547a6.576,6.576,0,0,1,4.654.784c4.092,2.262,5.205,8.015,4.948,11.856a11.738,11.738,0,0,1-1.372,5.291c-3.631,6.376-13.348,6-13.815,5.977-.238-.1-.493-.22-.759-.346a40.539,40.539,0,0,0,49.977-.885Zm-18.864-2.739c-.191.232-.687.721-4.18.719-2.994,0-3.54-.361-3.854-.653a2.517,2.517,0,0,1-.849-2.09c.263-1.661,2.943-2.511,4.834-2.482,1.378.021,3.907.533,4.442,2.286A2.473,2.473,0,0,1,3917.506,5494.035Z" />
    <circle id="Elipse_10" data-name="Elipse 10" cx="3.836" cy="3.836" r="3.836" transform="translate(3892.853 5480.379)" />
    <circle id="Elipse_11" data-name="Elipse 11" cx="3.836" cy="3.836" r="3.836" transform="translate(3925.416 5480.379)" />
  </g>
</svg>
