<svg xmlns="http://www.w3.org/2000/svg" viewBox="0 0 127.89 127.89"><g id="Capa_2" data-name="Capa 2"><g id="Unofficial_JavaScript_logo_2" data-name="Unofficial JavaScript logo 2"><path id="Sustracción_10" data-name="Sustracción 10" d="M127.89,127.89H0V0H127.89V127.89ZM78.74,101.76v12.9a27.66,27.66,0,0,0,7.47,2.42,49,49,0,0,0,9,.8A41.74,41.74,0,0,0,104,117a22.37,22.37,0,0,0,7.22-2.83,12.77,12.77,0,0,0,4.9-5.42A19.51,19.51,0,0,0,118,100.5a16.9,16.9,0,0,0-1.06-6.19,12.17,12.17,0,0,0-3.09-4.64,20.4,20.4,0,0,0-4.65-3.61A57.27,57.27,0,0,0,103,83c-1.71-.69-3.1-1.36-4.65-2a20.1,20.1,0,0,1-3.35-2,9.39,9.39,0,0,1-2.19-2.17A4.5,4.5,0,0,1,92,74.17a4.37,4.37,0,0,1,.69-2.4,6.11,6.11,0,0,1,1.94-1.83,10,10,0,0,1,3.09-1.18,17.62,17.62,0,0,1,4.13-.42,24.23,24.23,0,0,1,3.35.24,29.72,29.72,0,0,1,3.61.75,28.78,28.78,0,0,1,3.61,1.27,16.76,16.76,0,0,1,3.09,1.78V60.26a31.6,31.6,0,0,0-6.44-1.68,51.87,51.87,0,0,0-8-.54,38.49,38.49,0,0,0-8.76,1,20.24,20.24,0,0,0-7.22,3.09,14.85,14.85,0,0,0-4.9,5.42,15.22,15.22,0,0,0-1.81,7.73,14.55,14.55,0,0,0,3.35,9.8C84,87.9,87.43,90,91.81,92c1.78.72,3.35,1.44,4.9,2.14a21.36,21.36,0,0,1,3.87,2.16,9.52,9.52,0,0,1,2.58,2.45,5.14,5.14,0,0,1,1,3.1,4.75,4.75,0,0,1-.6,2.32,5,5,0,0,1-1.83,1.85,10.31,10.31,0,0,1-3.09,1.24,19.06,19.06,0,0,1-4.39.44A23.39,23.39,0,0,1,86,106.26a24.61,24.61,0,0,1-7.73-4.38ZM57.08,70h16.5V59.47H27.42V70h16.5v47.19H57.08Z"/></g></g></svg>