<svg xmlns="http://www.w3.org/2000/svg" width="75.768" height="76.247" viewBox="0 0 75.768 76.247">
  <g id="linkedin" transform="translate(-424.883 108.217)">
    <path id="Sustracción_14" data-name="Sustracción 14" d="M-837.047-5781.97h-64.568a5.537,5.537,0,0,1-5.6-5.459v-65.326a5.539,5.539,0,0,1,5.6-5.462h64.568a5.539,5.539,0,0,1,5.6,5.462v65.325A5.538,5.538,0,0,1-837.047-5781.97Zm-34.824-27.9h0v8.418a7.809,7.809,0,0,1-.2,1.872,6.317,6.317,0,0,1-.334,1.069,11.453,11.453,0,0,1-.8,1.336c0,.088.135.178.4.268a3.78,3.78,0,0,0,3.474-2.005,7.372,7.372,0,0,0,.669-3.073v-8.286h1.738v8.285a6.935,6.935,0,0,0,.667,3.008,3.323,3.323,0,0,0,2.405,1.8,3.428,3.428,0,0,0,.984.213.8.8,0,0,0,.153-.013c.142-.028.222-.066.236-.114.008-.026,0-.055-.036-.086a3.156,3.156,0,0,0-.668-1.336,5.288,5.288,0,0,1-.535-2.94v-8.42a2.606,2.606,0,0,1,1.069.6,1.949,1.949,0,0,1,.535,1.537v6.415a3.072,3.072,0,0,0,.4,1.6,4.471,4.471,0,0,0,3.608,1.6c.621,0,.981-.135,1.069-.4a.452.452,0,0,0-.268-.6,4.748,4.748,0,0,1-.935-.667,4.755,4.755,0,0,1-.935-1.136l-.134-4.077v-4.209a5.9,5.9,0,0,0-1.136-3.141,8.879,8.879,0,0,0-2.739-1.937,18.677,18.677,0,0,0,6.682-1.47,11.359,11.359,0,0,0,5.212-4.678,15.256,15.256,0,0,0,1.47-7.083,12.367,12.367,0,0,0-3.208-8.552,11.527,11.527,0,0,0,.2-3.742,14.46,14.46,0,0,0-.735-3.476,11.8,11.8,0,0,0-4.877,1.136,24.937,24.937,0,0,0-2.874,1.67,31.472,31.472,0,0,0-6.8-.77,28.2,28.2,0,0,0-7.093.9,13.952,13.952,0,0,0-7.753-2.94,12.019,12.019,0,0,0-.4,7.619,11.82,11.82,0,0,0-2.273,3.608,16.179,16.179,0,0,0-.6,7.083,11.261,11.261,0,0,0,2.607,6.281,12.169,12.169,0,0,0,4.343,2.873,25.021,25.021,0,0,0,7.15,1.538c-.876.35-1.505.619-1.87.8a4.078,4.078,0,0,0-1.137.935,4.013,4.013,0,0,0-.869,1.6,5.417,5.417,0,0,1-3.042,1.044,5.494,5.494,0,0,1-3.506-1.445,13.647,13.647,0,0,1-1.8-1.937,6.021,6.021,0,0,0-2.072-1.805,2.349,2.349,0,0,0-.935-.268,1.885,1.885,0,0,0-.309-.026,1.407,1.407,0,0,0-1.028.428.336.336,0,0,0,0,.535,13.51,13.51,0,0,1,3.207,3.474,13.139,13.139,0,0,0,2.139,3.074,8.577,8.577,0,0,0,4.751,1.6,7.12,7.12,0,0,0,2.332-.4,13.5,13.5,0,0,0,.066,2.94,5.125,5.125,0,0,1-.2,2.807,2.453,2.453,0,0,1-.8,1.069,4.083,4.083,0,0,1-.534.4,4.047,4.047,0,0,0-.6.467.37.37,0,0,0-.068.468c.089.267.449.4,1.069.4a4.244,4.244,0,0,0,3.609-1.6,3.086,3.086,0,0,0,.4-1.6v-6.415a2.125,2.125,0,0,1,.468-1.537,2.181,2.181,0,0,1,1-.6Z" transform="translate(1332.097 5750)" />
  </g>
</svg>
